<svg xmlns="http://www.w3.org/2000/svg" xmlns:xlink="http://www.w3.org/1999/xlink" version="1.1" width="595pt" height="842pt" viewBox="0 0 595 842">
<defs>
<clipPath id="clip_0">
<path transform="matrix(.12,0,0,-.12,14,794)" d="M273 0H4658V5890H273V0"/>
</clipPath>
<clipPath id="clip_1">
<path transform="matrix(.12,0,0,-.12,14,794)" d="M273 0H4658V5890H273V0"/>
</clipPath>
<clipPath id="clip_2">
<path transform="matrix(.12,0,0,-.12,14,794)" d="M273 0H4658V5890H273V0"/>
</clipPath>
</defs>
<g clip-path="url(#clip_0)">
<g id="layer_1" data-name="">
<path transform="matrix(.12,0,0,-.12,14,794)" stroke-width="13" stroke-linecap="round" stroke-linejoin="round" fill="none" stroke="#000000" d="M4230 3866.5C4230 4859.784 3425.232 5665 2432.5 5665 1439.7681 5665 635 4859.784 635 3866.5 635 2873.2159 1439.7681 2068 2432.5 2068 3425.232 2068 4230 2873.2159 4230 3866.5"/>
<path transform="matrix(.12,0,0,-.12,14,794)" stroke-width="13" stroke-linecap="round" stroke-linejoin="round" fill="none" stroke="#000000" d="M1050 4915H3853V3651H1050V4915"/>
<path transform="matrix(.12,0,0,-.12,14,794)" stroke-width="13" stroke-linecap="round" stroke-linejoin="round" fill="none" stroke="#000000" d="M460.659 3704.2288C509.19288 3113.8726 819.4224 2576.2874 1306.1715 2239.072"/>
<path transform="matrix(.12,0,0,-.12,14,794)" stroke-width="13" stroke-linecap="round" stroke-linejoin="round" fill="none" stroke="#000000" d="M1586.9252 2076.8909C2122.2413 1823.703 2742.7589 1823.703 3278.0748 2076.8909"/>
<path transform="matrix(.12,0,0,-.12,14,794)" stroke-width="13" stroke-linecap="round" stroke-linejoin="round" fill="none" stroke="#000000" d="M3558.8287 2239.072C4045.5777 2576.2874 4355.807 3113.8726 4404.341 3704.2288"/>
<path transform="matrix(.12,0,0,-.12,14,794)" stroke-width="13" stroke-linecap="round" stroke-linejoin="round" fill="none" stroke="#000000" d="M4405.008 4020.4476C4358.736 4613.919 4047.9808 5155.048 3558.8287 5493.9279"/>
<path transform="matrix(.12,0,0,-.12,14,794)" stroke-width="13" stroke-linecap="round" stroke-linejoin="round" fill="none" stroke="#000000" d="M3278.0748 5656.109C2742.7589 5909.297 2122.2413 5909.297 1586.9252 5656.109"/>
<path transform="matrix(.12,0,0,-.12,14,794)" stroke-width="13" stroke-linecap="round" stroke-linejoin="round" fill="none" stroke="#000000" d="M1306.1715 5493.9279C819.4224 5156.7126 509.19288 4619.1276 460.659 4028.7713"/>
<path transform="matrix(.12,0,0,-.12,14,794)" stroke-width="6" stroke-linecap="round" stroke-linejoin="round" fill="none" stroke="#000000" d="M4404 4028H4521V3866"/>
<path transform="matrix(.12,0,0,-.12,14,794)" stroke-width="6" stroke-linecap="round" stroke-linejoin="round" fill="none" stroke="#000000" d="M4404 3704H4521V3866"/>
<path transform="matrix(.12,0,0,-.12,14,794)" stroke-width="6" stroke-linecap="round" stroke-linejoin="round" fill="none" stroke="#000000" d="M3277 5655 3336 5757 3477 5676"/>
<path transform="matrix(.12,0,0,-.12,14,794)" stroke-width="6" stroke-linecap="round" stroke-linejoin="round" fill="none" stroke="#000000" d="M3558 5493 3617 5595 3477 5676"/>
<path transform="matrix(.12,0,0,-.12,14,794)" stroke-width="6" stroke-linecap="round" stroke-linejoin="round" fill="none" stroke="#000000" d="M1305 5493 1246 5595 1387 5676"/>
<path transform="matrix(.12,0,0,-.12,14,794)" stroke-width="6" stroke-linecap="round" stroke-linejoin="round" fill="none" stroke="#000000" d="M1586 5655 1527 5757 1387 5676"/>
<path transform="matrix(.12,0,0,-.12,14,794)" stroke-width="6" stroke-linecap="round" stroke-linejoin="round" fill="none" stroke="#000000" d="M460 3704H342V3866"/>
<path transform="matrix(.12,0,0,-.12,14,794)" stroke-width="6" stroke-linecap="round" stroke-linejoin="round" fill="none" stroke="#000000" d="M460 4028H342V3866"/>
<path transform="matrix(.12,0,0,-.12,14,794)" stroke-width="6" stroke-linecap="round" stroke-linejoin="round" fill="none" stroke="#000000" d="M1586 2077 1527 1975 1387 2056"/>
<path transform="matrix(.12,0,0,-.12,14,794)" stroke-width="6" stroke-linecap="round" stroke-linejoin="round" fill="none" stroke="#000000" d="M1305 2239 1246 2137 1387 2056"/>
<path transform="matrix(.12,0,0,-.12,14,794)" stroke-width="6" stroke-linecap="round" stroke-linejoin="round" fill="none" stroke="#000000" d="M3558 2239 3617 2137 3477 2056"/>
<path transform="matrix(.12,0,0,-.12,14,794)" stroke-width="6" stroke-linecap="round" stroke-linejoin="round" fill="none" stroke="#000000" d="M3277 2077 3336 1975 3477 2056"/>
<path transform="matrix(.12,0,0,-.12,14,794)" stroke-width="13" stroke-linecap="round" stroke-linejoin="round" fill="none" stroke="#000000" d="M1798 1991V771H2432"/>
<path transform="matrix(.12,0,0,-.12,14,794)" stroke-width="13" stroke-linecap="round" stroke-linejoin="round" fill="none" stroke="#000000" d="M3066 1991V771H2432"/>
<path transform="matrix(.12,0,0,-.12,14,794)" stroke-width="13" stroke-linecap="round" stroke-linejoin="round" fill="none" stroke="#000000" d="M1902 771V616H2432"/>
<path transform="matrix(.12,0,0,-.12,14,794)" stroke-width="13" stroke-linecap="round" stroke-linejoin="round" fill="none" stroke="#000000" d="M2961 771V616H2432"/>
<path transform="matrix(.12,0,0,-.12,14,794)" stroke-width="13" stroke-linecap="round" stroke-linejoin="round" fill="none" stroke="#000000" d="M2102 616V139H2432"/>
<path transform="matrix(.12,0,0,-.12,14,794)" stroke-width="13" stroke-linecap="round" stroke-linejoin="round" fill="none" stroke="#000000" d="M2761 616V139H2432"/>
</g>
</g>
<g clip-path="url(#clip_1)">
<g id="layer_1" data-name="">
<text xml:space="preserve" transform="matrix(.12 0 -0 .12 14 794)" font-size="304.307" font-family="ArialMT"><tspan y="-3346" x="1185 1387.9728 1557.1675 1690.454 1842.6074 1994.761 2204.1243 2413.4876 2582.6824 2722.055">&#x0412;&#x0430;&#x043a;&#x0443;&#x0443;&#x043c;&#x043c;&#x0435;&#x0442;&#x0440;</tspan></text>
</g>
<g clip-path="url(#clip_2)">
<text xml:space="preserve" transform="matrix(.12 0 -0 .12 14 794)" font-size="304.307" font-family="ArialMT"><tspan y="-3732" x="3190 3323.2864 3542.083">&#x043a;&#x041f;&#x0430;</tspan></text>
</g>
</g>
</svg>
