<?xml version="1.0" encoding="UTF-8" standalone="no"?>
<svg
   xmlns:dc="http://purl.org/dc/elements/1.1/"
   xmlns:cc="http://creativecommons.org/ns#"
   xmlns:rdf="http://www.w3.org/1999/02/22-rdf-syntax-ns#"
   xmlns:svg="http://www.w3.org/2000/svg"
   xmlns="http://www.w3.org/2000/svg"
   viewBox="0 0 793.33331 1122.6667"
   height="1122.6667"
   width="793.33331"
   xml:space="preserve"
   id="svg2"
   version="1.1"><metadata
     id="metadata8"><rdf:RDF><cc:Work
         rdf:about=""><dc:format>image/svg+xml</dc:format><dc:type
           rdf:resource="http://purl.org/dc/dcmitype/StillImage" /></cc:Work></rdf:RDF></metadata><defs
     id="defs6"><clipPath
       id="clipPath18"
       clipPathUnits="userSpaceOnUse"><path
         id="path16"
         d="M 273,0 H 4960 V 2950 H 273 V 0" /></clipPath></defs><g
     transform="matrix(0.16,0,0,-0.16,18.666666,1058.6667)"
     id="g10"><g
       id="g12"><g
         clip-path="url(#clipPath18)"
         id="g14"><path
           id="path20"
           style="fill:none;stroke:#000000;stroke-width:17;stroke-linecap:round;stroke-linejoin:round;stroke-miterlimit:10;stroke-dasharray:none;stroke-opacity:1"
           d="m 2134,267 v 2170 h -89 V 87 h 89 v 180 h 90 V 80 h 1258" /><path
           id="path22"
           style="fill:none;stroke:#000000;stroke-width:17;stroke-linecap:round;stroke-linejoin:round;stroke-miterlimit:10;stroke-dasharray:none;stroke-opacity:1"
           d="m 1480.4556,833.40186 c 20.9609,-302.74939 261.4536,-543.9578 564.1393,-565.81846" /><path
           id="path24"
           style="fill:none;stroke:#000000;stroke-width:17;stroke-linecap:round;stroke-linejoin:round;stroke-miterlimit:10;stroke-dasharray:none;stroke-opacity:1"
           d="m 2044.5949,2257.4165 c -302.6857,-21.8606 -543.1784,-263.069 -564.1393,-565.8184" /><path
           id="path26"
           style="fill:none;stroke:#000000;stroke-width:17;stroke-linecap:round;stroke-linejoin:round;stroke-miterlimit:10;stroke-dasharray:none;stroke-opacity:1"
           d="M 1480,1692 V 833" /><path
           id="path28"
           style="fill:none;stroke:#000000;stroke-width:17;stroke-linecap:round;stroke-linejoin:round;stroke-miterlimit:10;stroke-dasharray:none;stroke-opacity:1"
           d="m 1365.2454,982.70203 c 17.7917,-52.25342 62.1095,-91.04523 116.2584,-101.76221" /><path
           id="path30"
           style="fill:none;stroke:#000000;stroke-width:17;stroke-linecap:round;stroke-linejoin:round;stroke-miterlimit:10;stroke-dasharray:none;stroke-opacity:1"
           d="m 1481.5038,1644.0602 c -54.1489,-10.7169 -98.4667,-49.5088 -116.2584,-101.7622" /><path
           id="path32"
           style="fill:none;stroke:#000000;stroke-width:17;stroke-linecap:round;stroke-linejoin:round;stroke-miterlimit:10;stroke-dasharray:none;stroke-opacity:1"
           d="M 1364,1542 V 982" /><path
           id="path34"
           style="fill:none;stroke:#000000;stroke-width:17;stroke-linecap:round;stroke-linejoin:round;stroke-miterlimit:10;stroke-dasharray:none;stroke-opacity:1"
           d="m 3482,80 v 187 h 89 V 87 h 90 v 2350 h -90 V 267" /><path
           id="path36"
           style="fill:none;stroke:#000000;stroke-width:17;stroke-linecap:round;stroke-linejoin:round;stroke-miterlimit:10;stroke-dasharray:none;stroke-opacity:1"
           d="m 3661.405,267.5834 c 302.6858,21.86066 543.1785,263.06907 564.1394,565.81846" /><path
           id="path38"
           style="fill:none;stroke:#000000;stroke-width:17;stroke-linecap:round;stroke-linejoin:round;stroke-miterlimit:10;stroke-dasharray:none;stroke-opacity:1"
           d="m 4225.5444,1691.5981 c -20.9609,302.7494 -261.4536,543.9578 -564.1394,565.8184" /><path
           id="path40"
           style="fill:none;stroke:#000000;stroke-width:17;stroke-linecap:round;stroke-linejoin:round;stroke-miterlimit:10;stroke-dasharray:none;stroke-opacity:1"
           d="M 4225,1692 V 833" /><path
           id="path42"
           style="fill:none;stroke:#000000;stroke-width:17;stroke-linecap:round;stroke-linejoin:round;stroke-miterlimit:10;stroke-dasharray:none;stroke-opacity:1"
           d="m 4225.4961,880.93982 c 54.1489,10.71698 98.4668,49.50879 116.2583,101.76221" /><path
           id="path44"
           style="fill:none;stroke:#000000;stroke-width:17;stroke-linecap:round;stroke-linejoin:round;stroke-miterlimit:10;stroke-dasharray:none;stroke-opacity:1"
           d="m 4341.7544,1542.298 c -17.7915,52.2534 -62.1094,91.0453 -116.2583,101.7622" /><path
           id="path46"
           style="fill:none;stroke:#000000;stroke-width:17;stroke-linecap:round;stroke-linejoin:round;stroke-miterlimit:10;stroke-dasharray:none;stroke-opacity:1"
           d="M 4342,1542 V 982" /><path
           id="path48"
           style="fill:none;stroke:#000000;stroke-width:17;stroke-linecap:round;stroke-linejoin:round;stroke-miterlimit:10;stroke-dasharray:none;stroke-opacity:1"
           d="M 2134,2266 H 3571" /><path
           id="path50"
           style="fill:none;stroke:#000000;stroke-width:17;stroke-linecap:round;stroke-linejoin:round;stroke-miterlimit:10;stroke-dasharray:none;stroke-opacity:1"
           d="m 2673,2266 v 86 h 180 180 v -86" /><path
           id="path52"
           style="fill:none;stroke:#000000;stroke-width:17;stroke-linecap:round;stroke-linejoin:round;stroke-miterlimit:10;stroke-dasharray:none;stroke-opacity:1"
           d="m 2953.7752,2352.2512 c 69.8859,44.5652 101.9741,129.9063 78.7626,209.4761 C 3009.3267,2641.2969 2936.386,2696 2853.5,2696 c -82.886,0 -155.8267,-54.7031 -179.0378,-134.2727 -23.2115,-79.5698 8.8767,-164.9109 78.7626,-209.4761" /><path
           id="path54"
           style="fill:none;stroke:#000000;stroke-width:17;stroke-linecap:round;stroke-linejoin:round;stroke-miterlimit:10;stroke-dasharray:none;stroke-opacity:1"
           d="m 2925.1235,2352.5723 c 73.8213,33.6928 114.1785,114.282 96.9385,193.5761 C 3004.822,2625.4426 2934.6467,2682 2853.5,2682 c -81.1467,0 -151.322,-56.5574 -168.562,-135.8516 -17.24,-79.2941 23.1172,-159.8833 96.9385,-193.5761" /><path
           id="path56"
           style="fill:none;stroke:#000000;stroke-width:17;stroke-linecap:round;stroke-linejoin:round;stroke-miterlimit:10;stroke-dasharray:none;stroke-opacity:1"
           d="m 4487,1172 v 90 90" /><path
           id="path58"
           style="fill:none;stroke:#000000;stroke-width:17;stroke-linecap:round;stroke-linejoin:round;stroke-miterlimit:10;stroke-dasharray:none;stroke-opacity:1"
           d="m 4487.4102,1352.9652 c -10.5191,73.9374 -70.9327,130.677 -145.3838,136.5421" /><path
           id="path60"
           style="fill:none;stroke:#000000;stroke-width:17;stroke-linecap:round;stroke-linejoin:round;stroke-miterlimit:10;stroke-dasharray:none;stroke-opacity:1"
           d="m 4342.0264,1036.4927 c 74.4511,5.8651 134.8647,62.6047 145.3838,136.5421" /><path
           id="path62"
           style="fill:none;stroke:#000000;stroke-width:17;stroke-linecap:round;stroke-linejoin:round;stroke-miterlimit:10;stroke-dasharray:none;stroke-opacity:1"
           d="m 1148,1442 v -180 h 216" /><path
           id="path64"
           style="fill:none;stroke:#000000;stroke-width:17;stroke-linecap:round;stroke-linejoin:round;stroke-miterlimit:10;stroke-dasharray:none;stroke-opacity:1"
           d="M 1148,1262 V 1083 H 878 v 359 h 270" /><path
           id="path66"
           style="fill:none;stroke:#000000;stroke-width:17;stroke-linecap:round;stroke-linejoin:round;stroke-miterlimit:10;stroke-dasharray:none;stroke-opacity:1"
           d="M 878,1083 V 903 h -89" /><path
           id="path68"
           style="fill:none;stroke:#000000;stroke-width:17;stroke-linecap:round;stroke-linejoin:round;stroke-miterlimit:10;stroke-dasharray:none;stroke-opacity:1"
           d="m 878,1442 v 179 h -89" /><path
           id="path70"
           style="fill:none;stroke:#000000;stroke-width:17;stroke-linecap:round;stroke-linejoin:round;stroke-miterlimit:10;stroke-dasharray:none;stroke-opacity:1"
           d="M 2224,80 V 13" /><path
           id="path72"
           style="fill:none;stroke:#000000;stroke-width:17;stroke-linecap:round;stroke-linejoin:round;stroke-miterlimit:10;stroke-dasharray:none;stroke-opacity:1"
           d="M 3482,80 V 13" /><path
           id="path74"
           style="fill:none;stroke:#000000;stroke-width:17;stroke-linecap:round;stroke-linejoin:round;stroke-miterlimit:10;stroke-dasharray:none;stroke-opacity:1"
           d="M 789,1621 V 903" /></g></g></g></svg>