<?xml version="1.0" encoding="UTF-8" standalone="no"?>
<svg
   xmlns:dc="http://purl.org/dc/elements/1.1/"
   xmlns:cc="http://creativecommons.org/ns#"
   xmlns:rdf="http://www.w3.org/1999/02/22-rdf-syntax-ns#"
   xmlns:svg="http://www.w3.org/2000/svg"
   xmlns="http://www.w3.org/2000/svg"
   viewBox="0 0 793.33331 1122.6667"
   height="1122.6667"
   width="793.33331"
   xml:space="preserve"
   id="svg2"
   version="1.1"><metadata
     id="metadata8"><rdf:RDF><cc:Work
         rdf:about=""><dc:format>image/svg+xml</dc:format><dc:type
           rdf:resource="http://purl.org/dc/dcmitype/StillImage" /></cc:Work></rdf:RDF></metadata><defs
     id="defs6"><clipPath
       id="clipPath18"
       clipPathUnits="userSpaceOnUse"><path
         id="path16"
         d="M 273,0 H 4051 V 5890 H 273 V 0" /></clipPath></defs><g
     transform="matrix(0.16,0,0,-0.16,18.666666,1058.6667)"
     id="g10"><g
       id="g12"><g
         clip-path="url(#clipPath18)"
         id="g14"><path
           id="path20"
           style="fill:none;stroke:#000000;stroke-width:17;stroke-linecap:round;stroke-linejoin:round;stroke-miterlimit:10;stroke-dasharray:none;stroke-opacity:1"
           d="M 1970,73 V 358" /><path
           id="path22"
           style="fill:none;stroke:#000000;stroke-width:17;stroke-linecap:round;stroke-linejoin:round;stroke-miterlimit:10;stroke-dasharray:none;stroke-opacity:1"
           d="m 1970,436 v 68" /><path
           id="path24"
           style="fill:none;stroke:#000000;stroke-width:17;stroke-linecap:round;stroke-linejoin:round;stroke-miterlimit:10;stroke-dasharray:none;stroke-opacity:1"
           d="m 1970,880 v 26" /><path
           id="path26"
           style="fill:none;stroke:#000000;stroke-width:17;stroke-linecap:round;stroke-linejoin:round;stroke-miterlimit:10;stroke-dasharray:none;stroke-opacity:1"
           d="M 1970,1526 V 3309" /><path
           id="path28"
           style="fill:none;stroke:#000000;stroke-width:17;stroke-linecap:round;stroke-linejoin:round;stroke-miterlimit:10;stroke-dasharray:none;stroke-opacity:1"
           d="M 1970,3466 V 4502 H 1656 V 3466" /><path
           id="path30"
           style="fill:none;stroke:#000000;stroke-width:17;stroke-linecap:round;stroke-linejoin:round;stroke-miterlimit:10;stroke-dasharray:none;stroke-opacity:1"
           d="M 1656,3309 V 1526" /><path
           id="path32"
           style="fill:none;stroke:#000000;stroke-width:17;stroke-linecap:round;stroke-linejoin:round;stroke-miterlimit:10;stroke-dasharray:none;stroke-opacity:1"
           d="M 1656,906 V 880" /><path
           id="path34"
           style="fill:none;stroke:#000000;stroke-width:17;stroke-linecap:round;stroke-linejoin:round;stroke-miterlimit:10;stroke-dasharray:none;stroke-opacity:1"
           d="M 1656,504 V 436" /><path
           id="path36"
           style="fill:none;stroke:#000000;stroke-width:17;stroke-linecap:round;stroke-linejoin:round;stroke-miterlimit:10;stroke-dasharray:none;stroke-opacity:1"
           d="M 1656,358 V 73" /><path
           id="path38"
           style="fill:none;stroke:#000000;stroke-width:17;stroke-linecap:round;stroke-linejoin:round;stroke-miterlimit:10;stroke-dasharray:none;stroke-opacity:1"
           d="m 1656,3309 h -79 v 157 h 471 v -157 h -392" /><path
           id="path40"
           style="fill:none;stroke:#000000;stroke-width:17;stroke-linecap:round;stroke-linejoin:round;stroke-miterlimit:10;stroke-dasharray:none;stroke-opacity:1"
           d="m 1577,3348 h -78" /><path
           id="path42"
           style="fill:none;stroke:#000000;stroke-width:17;stroke-linecap:round;stroke-linejoin:round;stroke-miterlimit:10;stroke-dasharray:none;stroke-opacity:1"
           d="M 1577,3427 H 1421 V 2838" /><path
           id="path44"
           style="fill:none;stroke:#000000;stroke-width:17;stroke-linecap:round;stroke-linejoin:round;stroke-miterlimit:10;stroke-dasharray:none;stroke-opacity:1"
           d="m 1421,2838.5 c 0,-21.8152 17.6847,-39.5 39.5,-39.5" /><path
           id="path46"
           style="fill:#000000;fill-opacity:1;fill-rule:nonzero;stroke:#000000;stroke-width:6.25;stroke-linecap:round;stroke-linejoin:round;stroke-miterlimit:10;stroke-dasharray:none;stroke-opacity:1"
           d="m 1468,2799 -1,4 -3,3 -4,1 -4,-1 -3,-3 -1,-4 1,-4 3,-3 4,-1 4,1 3,3 z" /><path
           id="path48"
           style="fill:none;stroke:#000000;stroke-width:17;stroke-linecap:round;stroke-linejoin:round;stroke-miterlimit:10;stroke-dasharray:none;stroke-opacity:1"
           d="m 1499,2838 v 510" /><path
           id="path50"
           style="fill:none;stroke:#000000;stroke-width:17;stroke-linecap:round;stroke-linejoin:round;stroke-miterlimit:10;stroke-dasharray:none;stroke-opacity:1"
           d="m 1460.5,2799 c 21.8153,0 39.5,17.6848 39.5,39.5" /><path
           id="path52"
           style="fill:none;stroke:#000000;stroke-width:17;stroke-linecap:round;stroke-linejoin:round;stroke-miterlimit:10;stroke-dasharray:none;stroke-opacity:1"
           d="m 1970,306 h 160 v -78 h -160" /><path
           id="path54"
           style="fill:none;stroke:#000000;stroke-width:17;stroke-linecap:round;stroke-linejoin:round;stroke-miterlimit:10;stroke-dasharray:none;stroke-opacity:1"
           d="M 2130,267 H 3266 V 1883" /><path
           id="path56"
           style="fill:none;stroke:#000000;stroke-width:17;stroke-linecap:round;stroke-linejoin:round;stroke-miterlimit:10;stroke-dasharray:none;stroke-opacity:1"
           d="m 3719,2335.5 c 0,249.9089 -202.5911,452.5 -452.5,452.5 -249.9089,0 -452.5,-202.5911 -452.5,-452.5 0,-249.9089 202.5911,-452.5 452.5,-452.5 249.9089,0 452.5,202.5911 452.5,452.5" /><path
           id="path58"
           style="fill:none;stroke:#000000;stroke-width:17;stroke-linecap:round;stroke-linejoin:round;stroke-miterlimit:10;stroke-dasharray:none;stroke-opacity:1"
           d="M 1656.4458,1369.3191 C 1587.6617,1350.3905 1540,1287.8409 1540,1216.5 c 0,-71.3409 47.6617,-133.8905 116.4458,-152.8191" /><path
           id="path60"
           style="fill:none;stroke:#000000;stroke-width:17;stroke-linecap:round;stroke-linejoin:round;stroke-miterlimit:10;stroke-dasharray:none;stroke-opacity:1"
           d="M 1969.5542,1063.6809 C 2038.3383,1082.6095 2086,1145.1591 2086,1216.5 c 0,71.3409 -47.6617,133.8905 -116.4458,152.8191" /><path
           id="path62"
           style="fill:none;stroke:#000000;stroke-width:17;stroke-linecap:round;stroke-linejoin:round;stroke-miterlimit:10;stroke-dasharray:none;stroke-opacity:1"
           d="m 1656,1369 h -157 v 157 h 549 78 v -157 h -156 -314" /><path
           id="path64"
           style="fill:none;stroke:#000000;stroke-width:17;stroke-linecap:round;stroke-linejoin:round;stroke-miterlimit:10;stroke-dasharray:none;stroke-opacity:1"
           d="M 1656,1063 H 1499 V 906 h 549 78 v 157 h -156 -314" /><path
           id="path66"
           style="fill:none;stroke:#000000;stroke-width:17;stroke-linecap:round;stroke-linejoin:round;stroke-miterlimit:10;stroke-dasharray:none;stroke-opacity:1"
           d="m 1656,358 h -79 v 78 h 393 78 v -78 h -392" /><path
           id="path68"
           style="fill:none;stroke:#000000;stroke-width:17;stroke-linecap:round;stroke-linejoin:round;stroke-miterlimit:10;stroke-dasharray:none;stroke-opacity:1"
           d="m 1577,73 h 393 78" /><path
           id="path70"
           style="fill:none;stroke:#000000;stroke-width:17;stroke-linecap:round;stroke-linejoin:round;stroke-miterlimit:10;stroke-dasharray:none;stroke-opacity:1"
           d="m 1656.2229,880.9986 c -67.5162,0.25891 -130.015,-35.61194 -163.848,-94.03998 -33.8331,-58.42804 -33.8331,-130.4892 0,-188.91724 33.833,-58.42804 96.3318,-94.29892 163.848,-94.04001" /><path
           id="path72"
           style="fill:none;stroke:#000000;stroke-width:17;stroke-linecap:round;stroke-linejoin:round;stroke-miterlimit:10;stroke-dasharray:none;stroke-opacity:1"
           d="m 1656,880 h 501 V 504 h -502" /><path
           id="path74"
           style="fill:none;stroke:#000000;stroke-width:17;stroke-linecap:round;stroke-linejoin:round;stroke-miterlimit:10;stroke-dasharray:none;stroke-opacity:1"
           d="m 2157,786 h 505 v -79 l -505,-15" /><path
           id="path76"
           style="fill:none;stroke:#000000;stroke-width:17;stroke-linecap:round;stroke-linejoin:round;stroke-miterlimit:10;stroke-dasharray:none;stroke-opacity:1"
           d="m 2662,786 v 354 l 170,-294" /><path
           id="path78"
           style="fill:none;stroke:#000000;stroke-width:17;stroke-linecap:round;stroke-linejoin:round;stroke-miterlimit:10;stroke-dasharray:none;stroke-opacity:1"
           d="M 2662,715 V 361 l 170,294" /><path
           id="path80"
           style="fill:none;stroke:#000000;stroke-width:17;stroke-linecap:round;stroke-linejoin:round;stroke-miterlimit:10;stroke-dasharray:none;stroke-opacity:1"
           d="M 2774,946 V 556" /><path
           id="path82"
           style="fill:none;stroke:#000000;stroke-width:17;stroke-linecap:round;stroke-linejoin:round;stroke-miterlimit:10;stroke-dasharray:none;stroke-opacity:1"
           d="M 2832,846 V 655" /><path
           id="path84"
           style="fill:none;stroke:#000000;stroke-width:17;stroke-linecap:round;stroke-linejoin:round;stroke-miterlimit:10;stroke-dasharray:none;stroke-opacity:1"
           d="m 1656,4502 h -79 v 79 h 393 78 v -79 h -392" /><path
           id="path86"
           style="fill:none;stroke:#000000;stroke-width:17;stroke-linecap:round;stroke-linejoin:round;stroke-miterlimit:10;stroke-dasharray:none;stroke-opacity:1"
           d="m 1656.1405,4581.2661 c -24.9877,347.3745 -294.5509,627.3174 -640.7339,665.4063" /><path
           id="path88"
           style="fill:none;stroke:#000000;stroke-width:17;stroke-linecap:round;stroke-linejoin:round;stroke-miterlimit:10;stroke-dasharray:none;stroke-opacity:1"
           d="m 1970.0676,4581.5625 c -52.9569,507.7207 -448.4004,912.2144 -954.7932,976.6445" /><path
           id="path90"
           style="fill:none;stroke:#000000;stroke-width:17;stroke-linecap:round;stroke-linejoin:round;stroke-miterlimit:10;stroke-dasharray:none;stroke-opacity:1"
           d="m 3121,2159 432,526 v -196" /><path
           id="path92"
           style="fill:none;stroke:#000000;stroke-width:17;stroke-linecap:round;stroke-linejoin:round;stroke-miterlimit:10;stroke-dasharray:none;stroke-opacity:1"
           d="m 3553,2685 -192,-39" /></g></g></g></svg>