<?xml version="1.0" encoding="UTF-8"?>
<svg xmlns="http://www.w3.org/2000/svg" width="800.000" height="600.000" viewBox="0.0 0.0 800.000 600.000" version="1.1">
  <title>Produce by Acme CAD Converter</title>
  <desc>Produce by Acme CAD Converter</desc>
<path d="M192.05 11.02L195.11 11.02M206.25 11.02L217.39 11.02M228.54 11.02L239.68 11.02M250.83 11.02L261.97 11.02M273.11 11.02L284.26 11.02M295.4 11.02L306.55 11.02M317.69 11.02L328.83 11.02M339.98 11.02L351.12 11.02M195.11 22.17L206.25 22.17M217.39 22.17L228.54 22.17M239.68 22.17L250.83 22.17M261.97 22.17L273.11 22.17M284.26 22.17L295.4 22.17M306.55 22.17L317.69 22.17M328.83 22.17L339.98 22.17M351.12 22.17L351.82 22.17M192.05 33.31L195.11 33.31M206.25 33.31L217.39 33.31M228.54 33.31L239.68 33.31M250.83 33.31L261.97 33.31M273.11 33.31L284.26 33.31M295.4 33.31L306.55 33.31M317.69 33.31L328.83 33.31M339.98 33.31L351.12 33.31M195.11 44.46L206.25 44.46M217.39 44.46L228.54 44.46M239.68 44.46L250.83 44.46M261.97 44.46L273.11 44.46M284.26 44.46L295.4 44.46M306.55 44.46L317.69 44.46M328.83 44.46L339.98 44.46M192.05 55.6L195.11 55.6M206.25 55.6L217.39 55.6M228.54 55.6L239.68 55.6M250.83 55.6L261.97 55.6M273.11 55.6L284.26 55.6M295.4 55.6L306.55 55.6M317.69 55.6L328.83 55.6M339.98 55.6L351.12 55.6M195.11 66.74L206.25 66.74M217.39 66.74L228.54 66.74M239.68 66.74L250.83 66.74M261.97 66.74L273.11 66.74M284.26 66.74L295.4 66.74M306.55 66.74L317.69 66.74M328.83 66.74L339.98 66.74M351.12 66.74L351.82 66.74M192.05 77.89L195.11 77.89M206.25 77.89L217.39 77.89M228.54 77.89L239.68 77.89M250.83 77.89L261.97 77.89M273.11 77.89L284.26 77.89M295.4 77.89L306.55 77.89M317.69 77.89L328.83 77.89M339.98 77.89L351.12 77.89M139.39 479.07L150.53 479.07M161.67 479.07L172.82 479.07M183.96 479.07L195.11 479.07M206.25 479.07L217.39 479.07M228.54 479.07L239.68 479.07M250.83 479.07L261.97 479.07M273.11 479.07L284.26 479.07M295.4 479.07L306.45 479.07M327.51 479.07L328.83 479.07M339.98 479.07L351.12 479.07M362.27 479.07L373.41 479.07M384.56 479.07L395.7 479.07M406.84 479.07L412.65 479.07M151.71 490.22L161.67 490.22M172.82 490.22L183.96 490.22M195.11 490.22L206.25 490.22M217.39 490.22L228.54 490.22M239.68 490.22L250.83 490.22M261.97 490.22L273.11 490.22M284.26 490.22L295.4 490.22M328.83 490.22L339.98 490.22M351.12 490.22L362.27 490.22M373.41 490.22L384.56 490.22M395.7 490.22L406.84 490.22M161.67 501.36L172.82 501.36M183.96 501.36L195.11 501.36M206.25 501.36L217.39 501.36M228.54 501.36L239.68 501.36M250.83 501.36L261.97 501.36M273.11 501.36L284.26 501.36M295.4 501.36L306.45 501.36M327.51 501.36L328.83 501.36M339.98 501.36L351.12 501.36M362.27 501.36L373.41 501.36M384.56 501.36L395.7 501.36M158.75 512.51L161.67 512.51M172.82 512.51L183.96 512.51M195.11 512.51L206.25 512.51M217.39 512.51L228.54 512.51M239.68 512.51L250.83 512.51M261.97 512.51L273.11 512.51M284.26 512.51L295.4 512.51M328.83 512.51L339.98 512.51M351.12 512.51L362.27 512.51M373.41 512.51L384.56 512.51M395.7 512.51L403.28 512.51M161.67 523.65L172.82 523.65M183.96 523.65L195.11 523.65M206.25 523.65L217.39 523.65M228.54 523.65L239.68 523.65M250.83 523.65L261.97 523.65M273.11 523.65L284.26 523.65M295.4 523.65L306.45 523.65M327.51 523.65L328.83 523.65M339.98 523.65L351.12 523.65M362.27 523.65L373.41 523.65M384.56 523.65L395.7 523.65M174.44 534.79L183.96 534.79M195.11 534.79L206.25 534.79M217.39 534.79L228.54 534.79M239.68 534.79L250.83 534.79M261.97 534.79L273.11 534.79M284.26 534.79L295.4 534.79M328.83 534.79L339.98 534.79M351.12 534.79L362.27 534.79M373.41 534.79L384.56 534.79M395.7 534.79L400.08 534.79M194.05 545.94L195.11 545.94M206.25 545.94L217.39 545.94M228.54 545.94L239.68 545.94M250.83 545.94L261.97 545.94M273.11 545.94L284.26 545.94M295.4 545.94L306.45 545.94M327.51 545.94L328.83 545.94M339.98 545.94L351.12 545.94M362.27 545.94L373.41 545.94M384.56 545.94L395.7 545.94M196 557.08L206.25 557.08M217.39 557.08L228.54 557.08M239.68 557.08L250.83 557.08M261.97 557.08L273.11 557.08M284.26 557.08L295.4 557.08M306.55 557.08L317.69 557.08M328.83 557.08L339.98 557.08M351.12 557.08L362.27 557.08M373.41 557.08L384.56 557.08M395.7 557.08L397.09 557.08M194.7 568.23L195.11 568.23M206.25 568.23L217.39 568.23M228.54 568.23L239.68 568.23M250.83 568.23L261.97 568.23M273.11 568.23L284.26 568.23M295.4 568.23L306.55 568.23M317.69 568.23L328.83 568.23M339.98 568.23L351.12 568.23M362.27 568.23L373.41 568.23M384.56 568.23L394.15 568.23M195.11 579.37L206.25 579.37M217.39 579.37L228.54 579.37M239.68 579.37L250.83 579.37M261.97 579.37L273.11 579.37M284.26 579.37L295.4 579.37M306.55 579.37L317.69 579.37M328.83 579.37L339.98 579.37M351.12 579.37L362.27 579.37M373.41 579.37L384.56 579.37M206.25 590.51L217.39 590.51M228.54 590.51L239.68 590.51M250.83 590.51L260.31 590.51M295.4 590.51L306.55 590.51M317.69 590.51L328.83 590.51M339.98 590.51L351.12 590.51M362.27 590.51L373.41 590.51"
fill="none" stroke="black" stroke-width="0.5"/>
<path d="M136.18 477.24L413.64 477.24"
fill="none" stroke="black" stroke-width="0.5"/>
<path d="M306.45 556.56L306.45 519.51"
fill="none" stroke="black" stroke-width="0.5"/>
<path d="M306.45 516L306.45 418.94"
fill="none" stroke="black" stroke-width="0.5"/>
<path d="M327.51 418.94L327.51 516"
fill="none" stroke="black" stroke-width="0.5"/>
<path d="M327.51 519.51L327.51 556.56"
fill="none" stroke="black" stroke-width="0.5"/>
<path d="M327.51 556.56L306.45 556.56"
fill="none" stroke="black" stroke-width="0.5"/>
<path d="M306.45 524.89L327.51 524.89"
fill="none" stroke="black" stroke-width="0.5"/>
<path d="M304.7 519.51L329.27 519.51"
fill="none" stroke="black" stroke-width="0.5"/>
<path d="M329.27 519.51L329.27 516"
fill="none" stroke="black" stroke-width="0.5"/>
<path d="M329.27 516L304.7 516"
fill="none" stroke="black" stroke-width="0.5"/>
<path d="M304.7 516L304.7 519.51"
fill="none" stroke="black" stroke-width="0.5"/>
<path d="M306.45 519.51L304.7 519.51"
fill="none" stroke="black" stroke-width="0.5"/>
<path d="M306.45 418.94L306.45 352.46"
fill="none" stroke="black" stroke-width="0.5"/>
<path d="M327.51 352.46L327.51 418.94"
fill="none" stroke="black" stroke-width="0.5"/>
<path d="M304.7 352.46L329.27 352.46"
fill="none" stroke="black" stroke-width="0.5"/>
<path d="M329.27 352.46L329.27 348.95"
fill="none" stroke="black" stroke-width="0.5"/>
<path d="M329.27 348.95L304.7 348.95"
fill="none" stroke="black" stroke-width="0.5"/>
<path d="M304.7 348.95L304.7 352.46"
fill="none" stroke="black" stroke-width="0.5"/>
<path d="M306.45 352.46L304.7 352.46"
fill="none" stroke="black" stroke-width="0.5"/>
<path d="M340.44 328.96L338.03 330.33M338.03 330.33L335.8 331.98M335.8 331.98L333.78 333.89M333.78 333.89L332 336.02M332 336.02L330.49 338.35M330.49 338.35L329.27 340.85M329.27 340.85L328.36 343.47M328.36 343.47L327.77 346.19M327.77 346.19L327.51 348.95"
fill="none" stroke="black" stroke-width="0.5"/>
<path d="M340.44 307.9L336.67 308.73M336.67 308.73L332.99 309.92M332.99 309.92L329.44 311.46M329.44 311.46L326.05 313.31M326.05 313.31L322.85 315.49M322.85 315.49L319.87 317.95M319.87 317.95L317.13 320.68M317.13 320.68L314.66 323.66M314.66 323.66L312.49 326.86M312.49 326.86L310.63 330.25M310.63 330.25L309.09 333.8M309.09 333.8L307.9 337.47M307.9 337.47L307.05 341.25M307.05 341.25L306.57 345.09M306.57 345.09L306.45 348.95"
fill="none" stroke="black" stroke-width="0.5"/>
<path d="M340.44 307.9L340.44 306.14"
fill="none" stroke="black" stroke-width="0.5"/>
<path d="M340.44 306.14L343.95 306.14"
fill="none" stroke="black" stroke-width="0.5"/>
<path d="M343.95 306.14L343.95 330.71"
fill="none" stroke="black" stroke-width="0.5"/>
<path d="M343.95 330.71L340.44 330.71"
fill="none" stroke="black" stroke-width="0.5"/>
<path d="M340.44 330.71L340.44 328.96"
fill="none" stroke="black" stroke-width="0.5"/>
<path d="M340.44 328.96L340.44 307.9"
fill="none" stroke="black" stroke-width="0.5"/>
<path d="M343.95 307.88L350.45 307.88"
fill="none" stroke="black" stroke-width="0.5"/>
<path d="M350.45 307.88L350.45 300.86"
fill="none" stroke="black" stroke-width="0.5"/>
<path d="M350.45 300.86L360.98 300.86"
fill="none" stroke="black" stroke-width="0.5"/>
<path d="M360.98 300.86L360.98 328.94"
fill="none" stroke="black" stroke-width="0.5"/>
<path d="M350.45 328.94L343.95 328.94"
fill="none" stroke="black" stroke-width="0.5"/>
<path d="M350.45 307.88L350.45 328.94"
fill="none" stroke="black" stroke-width="0.5"/>
<path d="M350.45 328.94L350.64 330.3M350.64 330.3L351.17 331.56M351.17 331.56L352 332.65M352 332.65L353.09 333.48M353.09 333.48L354.36 334M354.36 334L355.72 334.18M355.72 334.18L357.08 334M357.08 334L358.35 333.48M358.35 333.48L359.43 332.65M359.43 332.65L360.27 331.56M360.27 331.56L360.8 330.3M360.8 330.3L360.98 328.94"
fill="none" stroke="black" stroke-width="0.5"/>
<path d="M360.98 300.81L360.8 299.46M360.8 299.46L360.27 298.19M360.27 298.19L359.43 297.11M359.43 297.11L358.35 296.27M358.35 296.27L357.08 295.75M357.08 295.75L355.72 295.57M355.72 295.57L354.36 295.75M354.36 295.75L353.09 296.27M353.09 296.27L352 297.11M352 297.11L351.17 298.19M351.17 298.19L350.64 299.46M350.64 299.46L350.45 300.81"
fill="none" stroke="black" stroke-width="0.5"/>
<path d="M359.04 296.75L358.85 295.63M358.85 295.63L358.29 294.64M358.29 294.64L357.43 293.9M357.43 293.9L356.36 293.5M356.36 293.5L355.23 293.49M355.23 293.49L354.16 293.87M354.16 293.87L353.28 294.59M353.28 294.59L352.7 295.56M352.7 295.56L352.49 296.68"
fill="none" stroke="black" stroke-width="0.5"/>
<path d="M355.8 286.43L348.78 286.43"
fill="none" stroke="black" stroke-width="0.5"/>
<path d="M348.78 286.43L348.78 282.92"
fill="none" stroke="black" stroke-width="0.5"/>
<path d="M348.78 282.92L362.82 282.92"
fill="none" stroke="black" stroke-width="0.5"/>
<path d="M362.82 282.92L362.82 286.43"
fill="none" stroke="black" stroke-width="0.5"/>
<path d="M362.82 286.43L355.8 286.43"
fill="none" stroke="black" stroke-width="0.5"/>
<path d="M355.8 286.43L357.55 286.47"
fill="none" stroke="black" stroke-width="0.5"/>
<path d="M357.55 286.47L357.55 293.98"
fill="none" stroke="black" stroke-width="0.5"/>
<path d="M354.04 286.47L354.04 293.94"
fill="none" stroke="black" stroke-width="0.5"/>
<path d="M394.56 307.88L360.98 307.88"
fill="none" stroke="black" stroke-width="0.5"/>
<path d="M394.56 307.88L394.56 328.94"
fill="none" stroke="black" stroke-width="0.5"/>
<path d="M394.56 328.94L360.98 328.94"
fill="none" stroke="black" stroke-width="0.5"/>
<path d="M394.56 307.88L394.56 306.12"
fill="none" stroke="black" stroke-width="0.5"/>
<path d="M394.56 306.12L398.07 306.12"
fill="none" stroke="black" stroke-width="0.5"/>
<path d="M398.07 306.12L398.07 330.69"
fill="none" stroke="black" stroke-width="0.5"/>
<path d="M398.07 330.69L394.56 330.69"
fill="none" stroke="black" stroke-width="0.5"/>
<path d="M394.56 330.69L394.56 328.94"
fill="none" stroke="black" stroke-width="0.5"/>
<path d="M394.56 328.94L394.56 307.88"
fill="none" stroke="black" stroke-width="0.5"/>
<path d="M398.07 307.73L405.09 307.73"
fill="none" stroke="black" stroke-width="0.5"/>
<path d="M398.07 328.94L405.09 328.94"
fill="none" stroke="black" stroke-width="0.5"/>
<path d="M398.07 328.94L405.09 328.94"
fill="none" stroke="black" stroke-width="0.5"/>
<path d="M405.09 328.94L405.09 335.96"
fill="none" stroke="black" stroke-width="0.5"/>
<path d="M408.6 339.47L412.11 339.47"
fill="none" stroke="black" stroke-width="0.5"/>
<path d="M405.09 335.96L405.26 337.04M405.26 337.04L405.76 338.02M405.76 338.02L406.53 338.8M406.53 338.8L407.51 339.3M407.51 339.3L408.6 339.47"
fill="none" stroke="black" stroke-width="0.5"/>
<path d="M412.11 339.47L412.11 297.35"
fill="none" stroke="black" stroke-width="0.5"/>
<path d="M412.11 297.35L408.6 297.35"
fill="none" stroke="black" stroke-width="0.5"/>
<path d="M408.6 297.35L407.51 297.52M407.51 297.52L406.53 298.02M406.53 298.02L405.76 298.8M405.76 298.8L405.26 299.77M405.26 299.77L405.09 300.86"
fill="none" stroke="black" stroke-width="0.5"/>
<path d="M405.09 300.86L405.09 307.73"
fill="none" stroke="black" stroke-width="0.5"/>
<path d="M405.09 307.73L405.09 328.94"
fill="none" stroke="black" stroke-width="0.5"/>
<path d="M382.82 417.72L382.82 386.41"
fill="none" stroke="black" stroke-width="0.5"/>
<path d="M382.82 386.41L663.82 386.41"
fill="none" stroke="black" stroke-width="0.5"/>
<path d="M398.25 386.41L398.25 382.9"
fill="none" stroke="black" stroke-width="0.5"/>
<path d="M398.25 382.9L398.95 382.9"
fill="none" stroke="black" stroke-width="0.5"/>
<path d="M398.95 382.9L398.95 386.41"
fill="none" stroke="black" stroke-width="0.5"/>
<path d="M398.6 382.9L391.58 382.9"
fill="none" stroke="black" stroke-width="0.5"/>
<path d="M398.6 382.9L405.62 382.9"
fill="none" stroke="black" stroke-width="0.5"/>
<path d="M405.62 382.9L391.58 368.86"
fill="none" stroke="black" stroke-width="0.5"/>
<path d="M391.58 382.9L405.62 368.86"
fill="none" stroke="black" stroke-width="0.5"/>
<path d="M405.62 368.86L391.58 368.86"
fill="none" stroke="black" stroke-width="0.5"/>
<path d="M398.6 375.88L387.84 375.88"
fill="none" stroke="black" stroke-width="0.5"/>
<path d="M387.84 375.88L384.8 374.12"
fill="none" stroke="black" stroke-width="0.5"/>
<path d="M387.84 375.88L385.36 378.36"
fill="none" stroke="black" stroke-width="0.5"/>
<path d="M398.25 365.35L398.25 368.86"
fill="none" stroke="black" stroke-width="0.5"/>
<path d="M398.95 368.86L398.95 365.35"
fill="none" stroke="black" stroke-width="0.5"/>
<path d="M398.25 365.35L398.25 359.64"
fill="none" stroke="black" stroke-width="0.5"/>
<path d="M398.95 365.35L398.95 359.64"
fill="none" stroke="black" stroke-width="0.5"/>
<path d="M426.15 339.47L426.15 284.61"
fill="none" stroke="black" stroke-width="0.5"/>
<path d="M426.15 281.1L426.15 268.33"
fill="none" stroke="black" stroke-width="0.5"/>
<path d="M426.15 216.06L426.15 136.25"
fill="none" stroke="black" stroke-width="0.5"/>
<path d="M426.15 129.23L426.15 82.85"
fill="none" stroke="black" stroke-width="0.5"/>
<path d="M426.15 82.85L412.11 82.85"
fill="none" stroke="black" stroke-width="0.5"/>
<path d="M412.11 82.85L412.11 129.23"
fill="none" stroke="black" stroke-width="0.5"/>
<path d="M412.11 136.25L412.11 216.06"
fill="none" stroke="black" stroke-width="0.5"/>
<path d="M412.11 268.33L412.11 281.1"
fill="none" stroke="black" stroke-width="0.5"/>
<path d="M412.11 284.61L412.11 297.35"
fill="none" stroke="black" stroke-width="0.5"/>
<path d="M433.17 328.94L433.17 335.96"
fill="none" stroke="black" stroke-width="0.5"/>
<path d="M429.66 339.47L426.15 339.47"
fill="none" stroke="black" stroke-width="0.5"/>
<path d="M429.66 339.47L430.74 339.3M430.74 339.3L431.72 338.8M431.72 338.8L432.5 338.02M432.5 338.02L433 337.04M433 337.04L433.17 335.96"
fill="none" stroke="black" stroke-width="0.5"/>
<path d="M426.15 339.47L426.15 297.35"
fill="none" stroke="black" stroke-width="0.5"/>
<path d="M426.15 297.35L429.66 297.35"
fill="none" stroke="black" stroke-width="0.5"/>
<path d="M433.17 300.86L433 299.77M433 299.77L432.5 298.8M432.5 298.8L431.72 298.02M431.72 298.02L430.74 297.52M430.74 297.52L429.66 297.35"
fill="none" stroke="black" stroke-width="0.5"/>
<path d="M433.17 300.86L433.17 307.73"
fill="none" stroke="black" stroke-width="0.5"/>
<path d="M433.17 307.73L433.17 328.94"
fill="none" stroke="black" stroke-width="0.5"/>
<path d="M412.11 136.25L408.6 136.25"
fill="none" stroke="black" stroke-width="0.5"/>
<path d="M408.6 136.25L408.6 129.23"
fill="none" stroke="black" stroke-width="0.5"/>
<path d="M408.6 129.23L429.66 129.23"
fill="none" stroke="black" stroke-width="0.5"/>
<path d="M429.66 129.23L429.66 136.25"
fill="none" stroke="black" stroke-width="0.5"/>
<path d="M429.66 136.25L412.11 136.25"
fill="none" stroke="black" stroke-width="0.5"/>
<path d="M408.6 134.5L405.09 134.5"
fill="none" stroke="black" stroke-width="0.5"/>
<path d="M408.6 130.99L401.58 130.99"
fill="none" stroke="black" stroke-width="0.5"/>
<path d="M401.58 130.99L401.58 157.32"
fill="none" stroke="black" stroke-width="0.5"/>
<path d="M401.58 157.32L401.71 157.99M401.71 157.99L402.09 158.56M402.09 158.56L402.66 158.94M402.66 158.94L403.33 159.07"
fill="none" stroke="black" stroke-width="0.5"/>
<path d="M403.33 159.07L403.33 159.07"
fill="none" stroke="black" stroke-width="0.5"/>
<path d="M405.09 157.32L405.09 134.5"
fill="none" stroke="black" stroke-width="0.5"/>
<path d="M403.33 159.07L404 158.94M404 158.94L404.57 158.56M404.57 158.56L404.95 157.99M404.95 157.99L405.09 157.32"
fill="none" stroke="black" stroke-width="0.5"/>
<path d="M385.8 307.88L385.8 248.55"
fill="none" stroke="black" stroke-width="0.5"/>
<path d="M385.8 248.55L371.09 248.55"
fill="none" stroke="black" stroke-width="0.5"/>
<path d="M371.09 248.55L371.09 239.13"
fill="none" stroke="black" stroke-width="0.5"/>
<path d="M350.86 218.9L351.05 216.08M351.05 216.08L351.64 213.32M351.64 213.32L352.6 210.67M352.6 210.67L353.93 208.18M353.93 208.18L355.59 205.89M355.59 205.89L357.55 203.86M357.55 203.86L359.77 202.13M359.77 202.13L362.22 200.71M362.22 200.71L364.84 199.66M364.84 199.66L367.58 198.97M367.58 198.97L370.38 198.68M370.38 198.68L373.2 198.78M373.2 198.78L375.98 199.27M375.98 199.27L378.67 200.14M378.67 200.14L381.21 201.38M381.21 201.38L383.55 202.96M383.55 202.96L385.64 204.84M385.64 204.84L387.46 207.01M387.46 207.01L388.96 209.4M388.96 209.4L390.1 211.98M390.1 211.98L390.88 214.69M390.88 214.69L391.27 217.49M391.27 217.49L391.27 220.31M391.27 220.31L390.88 223.11M390.88 223.11L390.1 225.82M390.1 225.82L388.96 228.4M388.96 228.4L387.46 230.79M387.46 230.79L385.64 232.96M385.64 232.96L383.55 234.85M383.55 234.85L381.21 236.42M381.21 236.42L378.67 237.66M378.67 237.66L375.98 238.53M375.98 238.53L373.2 239.02M373.2 239.02L370.38 239.12M370.38 239.12L367.58 238.83M367.58 238.83L364.84 238.14M364.84 238.14L362.22 237.09M362.22 237.09L359.77 235.68M359.77 235.68L357.55 233.94M357.55 233.94L355.59 231.91M355.59 231.91L353.93 229.62M353.93 229.62L352.6 227.13M352.6 227.13L351.64 224.48M351.64 224.48L351.05 221.72M351.05 221.72L350.86 218.9"
fill="none" stroke="black" stroke-width="0.5"/>
<path d="M426.15 270.64L433.35 270.64"
fill="none" stroke="black" stroke-width="0.5"/>
<path d="M433.35 270.64L433.35 274.15"
fill="none" stroke="black" stroke-width="0.5"/>
<path d="M433.35 274.15L426.15 274.15"
fill="none" stroke="black" stroke-width="0.5"/>
<path d="M433.35 272.4L484.19 272.4"
fill="none" stroke="black" stroke-width="0.5"/>
<path d="M484.19 272.4L484.19 200.07"
fill="none" stroke="black" stroke-width="0.5"/>
<path d="M463.96 179.83L464.16 177.02M464.16 177.02L464.74 174.26M464.74 174.26L465.71 171.6M465.71 171.6L467.03 169.11M467.03 169.11L468.69 166.83M468.69 166.83L470.65 164.8M470.65 164.8L472.88 163.06M472.88 163.06L475.32 161.65M475.32 161.65L477.94 160.59M477.94 160.59L480.68 159.91M480.68 159.91L483.49 159.61M483.49 159.61L486.31 159.71M486.31 159.71L489.09 160.2M489.09 160.2L491.77 161.07M491.77 161.07L494.31 162.31M494.31 162.31L496.65 163.89M496.65 163.89L498.75 165.78M498.75 165.78L500.56 167.94M500.56 167.94L502.06 170.34M502.06 170.34L503.21 172.91M503.21 172.91L503.98 175.63M503.98 175.63L504.38 178.42M504.38 178.42L504.38 181.25M504.38 181.25L503.98 184.04M503.98 184.04L503.21 186.75M503.21 186.75L502.06 189.33M502.06 189.33L500.56 191.73M500.56 191.73L498.75 193.89M498.75 193.89L496.65 195.78M496.65 195.78L494.31 197.36M494.31 197.36L491.77 198.6M491.77 198.6L489.09 199.47M489.09 199.47L486.31 199.96M486.31 199.96L483.49 200.06M483.49 200.06L480.68 199.76M480.68 199.76L477.94 199.08M477.94 199.08L475.32 198.02M475.32 198.02L472.88 196.61M472.88 196.61L470.65 194.87M470.65 194.87L468.69 192.84M468.69 192.84L467.03 190.56M467.03 190.56L465.71 188.06M465.71 188.06L464.74 185.41M464.74 185.41L464.16 182.65M464.16 182.65L463.96 179.83"
fill="none" stroke="black" stroke-width="0.5"/>
<path d="M412.11 223.08L410.55 223.71M410.55 223.71L409.19 224.69M409.19 224.69L408.1 225.96M408.1 225.96L407.33 227.46M407.33 227.46L406.94 229.09M406.94 229.09L406.94 230.76M406.94 230.76L407.33 232.4M407.33 232.4L408.1 233.89M408.1 233.89L409.19 235.16M409.19 235.16L410.55 236.14M410.55 236.14L412.11 236.77"
fill="none" stroke="black" stroke-width="0.5"/>
<path d="M426.15 236.77L427.7 236.14M427.7 236.14L429.06 235.16M429.06 235.16L430.16 233.89M430.16 233.89L430.92 232.4M430.92 232.4L431.32 230.76M431.32 230.76L431.32 229.09M431.32 229.09L430.92 227.46M430.92 227.46L430.16 225.96M430.16 225.96L429.06 224.69M429.06 224.69L427.7 223.71M427.7 223.71L426.15 223.08"
fill="none" stroke="black" stroke-width="0.5"/>
<path d="M412.11 223.08L405.09 223.08"
fill="none" stroke="black" stroke-width="0.5"/>
<path d="M405.09 223.08L405.09 216.06"
fill="none" stroke="black" stroke-width="0.5"/>
<path d="M405.09 216.06L429.66 216.06"
fill="none" stroke="black" stroke-width="0.5"/>
<path d="M429.66 216.06L433.17 216.06"
fill="none" stroke="black" stroke-width="0.5"/>
<path d="M433.17 216.06L433.17 223.08"
fill="none" stroke="black" stroke-width="0.5"/>
<path d="M433.17 223.08L426.15 223.08"
fill="none" stroke="black" stroke-width="0.5"/>
<path d="M426.15 223.08L412.11 223.08"
fill="none" stroke="black" stroke-width="0.5"/>
<path d="M412.11 236.77L405.09 236.77"
fill="none" stroke="black" stroke-width="0.5"/>
<path d="M405.09 236.77L405.09 243.79"
fill="none" stroke="black" stroke-width="0.5"/>
<path d="M405.09 243.79L429.66 243.79"
fill="none" stroke="black" stroke-width="0.5"/>
<path d="M429.66 243.79L433.17 243.79"
fill="none" stroke="black" stroke-width="0.5"/>
<path d="M433.17 243.79L433.17 236.77"
fill="none" stroke="black" stroke-width="0.5"/>
<path d="M433.17 236.77L426.15 236.77"
fill="none" stroke="black" stroke-width="0.5"/>
<path d="M426.15 236.77L412.11 236.77"
fill="none" stroke="black" stroke-width="0.5"/>
<path d="M411.08 386.41L411.08 367.12"
fill="none" stroke="black" stroke-width="0.5"/>
<path d="M411.08 367.12L650.53 367.12"
fill="none" stroke="black" stroke-width="0.5"/>
<path d="M650.53 367.12L650.53 386.41"
fill="none" stroke="black" stroke-width="0.5"/>
<path d="M411.08 381.46L650.53 381.46"
fill="none" stroke="black" stroke-width="0.5"/>
<path d="M422.94 367.12L422.94 357.74"
fill="none" stroke="black" stroke-width="0.5"/>
<path d="M422.94 357.74L487.65 357.74"
fill="none" stroke="black" stroke-width="0.5"/>
<path d="M487.65 357.74L487.65 367.12"
fill="none" stroke="black" stroke-width="0.5"/>
<path d="M136.18 477.24L137.66 478.27M137.66 478.27L139.13 479.29M139.13 479.29L140.6 480.33M140.6 480.33L141.32 480.85M141.32 480.85L142.04 481.38M142.04 481.38L142.75 481.91M142.75 481.91L143.46 482.44M143.46 482.44L144.15 482.98M144.15 482.98L144.84 483.53M144.84 483.53L145.52 484.08M145.52 484.08L146.19 484.64M146.19 484.64L146.84 485.2M146.84 485.2L147.49 485.78M147.49 485.78L148.12 486.36M148.12 486.36L148.74 486.95M148.74 486.95L149.34 487.54M149.34 487.54L149.93 488.15M149.93 488.15L150.5 488.77M150.5 488.77L151.06 489.4M151.06 489.4L151.6 490.04M151.6 490.04L151.86 490.36M151.86 490.36L152.11 490.69M152.11 490.69L152.37 491.02M152.37 491.02L152.61 491.35M152.61 491.35L152.86 491.69M152.86 491.69L153.09 492.03M153.09 492.03L153.33 492.37M153.33 492.37L153.55 492.72M153.55 492.72L153.77 493.07M153.77 493.07L153.99 493.42M153.99 493.42L154.2 493.78M154.2 493.78L154.4 494.14M154.4 494.14L154.6 494.51M154.6 494.51L154.79 494.87M154.79 494.87L154.98 495.24M154.98 495.24L155.16 495.62M155.16 495.62L155.33 496M155.33 496L155.5 496.38M155.5 496.38L155.66 496.77M155.66 496.77L155.82 497.16M155.82 497.16L155.97 497.56M155.97 497.56L156.11 497.96M156.11 497.96L156.24 498.36M156.24 498.36L156.38 498.77M156.38 498.77L156.5 499.18M156.5 499.18L156.62 499.59M156.62 499.59L156.74 500.01M156.74 500.01L156.85 500.42M156.85 500.42L157.05 501.27M157.05 501.27L157.24 502.13M157.24 502.13L157.42 502.99M157.42 502.99L157.58 503.87M157.58 503.87L157.73 504.75M157.73 504.75L157.86 505.64M157.86 505.64L157.99 506.53M157.99 506.53L158.11 507.42M158.11 507.42L158.23 508.32M158.23 508.32L158.45 510.12M158.45 510.12L158.67 511.92M158.67 511.92L158.78 512.81M158.78 512.81L158.9 513.7M158.9 513.7L159.02 514.58M159.02 514.58L159.15 515.46M159.15 515.46L159.29 516.33M159.29 516.33L159.44 517.2M159.44 517.2L159.6 518.05M159.6 518.05L159.78 518.89M159.78 518.89L159.97 519.72M159.97 519.72L160.07 520.13M160.07 520.13L160.18 520.54M160.18 520.54L160.29 520.95M160.29 520.95L160.41 521.35M160.41 521.35L160.53 521.74M160.53 521.74L160.66 522.13M160.66 522.13L160.79 522.52M160.79 522.52L160.93 522.91M160.93 522.91L161.07 523.29M161.07 523.29L161.22 523.66M161.22 523.66L161.38 524.03M161.38 524.03L161.54 524.4M161.54 524.4L161.71 524.76M161.71 524.76L161.89 525.12M161.89 525.12L162.07 525.47M162.07 525.47L162.26 525.82M162.26 525.82L162.46 526.16M162.46 526.16L162.67 526.49M162.67 526.49L162.88 526.82M162.88 526.82L163.1 527.14M163.1 527.14L163.34 527.46M163.34 527.46L163.57 527.77M163.57 527.77L163.82 528.08M163.82 528.08L164.08 528.38M164.08 528.38L164.35 528.67M164.35 528.67L164.62 528.96M164.62 528.96L164.91 529.23M164.91 529.23L165.2 529.51M165.2 529.51L165.5 529.78M165.5 529.78L165.81 530.04M165.81 530.04L166.13 530.29M166.13 530.29L166.45 530.55M166.45 530.55L166.78 530.79M166.78 530.79L167.12 531.03M167.12 531.03L167.47 531.27M167.47 531.27L167.82 531.5M167.82 531.5L168.18 531.73M168.18 531.73L168.54 531.95M168.54 531.95L168.91 532.17M168.91 532.17L169.29 532.38M169.29 532.38L169.67 532.59M169.67 532.59L170.06 532.8M170.06 532.8L170.45 533M170.45 533L170.85 533.2M170.85 533.2L171.65 533.59M171.65 533.59L172.47 533.96M172.47 533.96L173.3 534.33M173.3 534.33L174.15 534.69M174.15 534.69L175 535.04M175 535.04L175.86 535.38M175.86 535.38L176.73 535.72M176.73 535.72L180.21 537.06M180.21 537.06L181.08 537.4M181.08 537.4L181.94 537.74M181.94 537.74L182.79 538.08M182.79 538.08L183.63 538.43M183.63 538.43L184.45 538.78M184.45 538.78L185.27 539.15M185.27 539.15L186.06 539.52M186.06 539.52L186.45 539.72M186.45 539.72L186.84 539.91M186.84 539.91L187.22 540.11M187.22 540.11L187.6 540.31M187.6 540.31L187.97 540.51M187.97 540.51L188.33 540.72M188.33 540.72L188.69 540.93M188.69 540.93L189.05 541.15M189.05 541.15L189.39 541.37M189.39 541.37L189.73 541.59M189.73 541.59L190.06 541.82M190.06 541.82L190.39 542.06M190.39 542.06L190.71 542.29M190.71 542.29L191.01 542.54M191.01 542.54L191.32 542.79M191.32 542.79L191.61 543.04M191.61 543.04L191.89 543.3M191.89 543.3L192.17 543.56M192.17 543.56L192.44 543.84M192.44 543.84L192.69 544.11M192.69 544.11L192.94 544.4M192.94 544.4L193.18 544.68M193.18 544.68L193.41 544.98M193.41 544.98L193.63 545.28M193.63 545.28L193.83 545.59M193.83 545.59L194.03 545.91M194.03 545.91L194.22 546.23M194.22 546.23L194.39 546.56M194.39 546.56L194.56 546.9M194.56 546.9L194.71 547.24M194.71 547.24L194.86 547.59M194.86 547.59L195 547.94M195 547.94L195.12 548.31M195.12 548.31L195.24 548.67M195.24 548.67L195.35 549.04M195.35 549.04L195.45 549.42M195.45 549.42L195.55 549.8M195.55 549.8L195.63 550.19M195.63 550.19L195.71 550.59M195.71 550.59L195.78 550.98M195.78 550.98L195.84 551.39M195.84 551.39L195.89 551.79M195.89 551.79L195.94 552.2M195.94 552.2L195.98 552.62M195.98 552.62L196.01 553.04M196.01 553.04L196.03 553.46M196.03 553.46L196.05 553.89M196.05 553.89L196.07 554.32M196.07 554.32L196.08 554.76M196.08 554.76L196.08 555.19M196.08 555.19L196.08 555.64M196.08 555.64L196.07 556.08M196.07 556.08L196.04 556.97M196.04 556.97L195.99 557.88M195.99 557.88L195.92 558.8M195.92 558.8L195.84 559.72M195.84 559.72L195.74 560.65M195.74 560.65L195.64 561.58M195.64 561.58L195.52 562.52M195.52 562.52L195.4 563.46M195.4 563.46L195.26 564.4M195.26 564.4L194.99 566.28M194.99 566.28L194.71 568.15M194.71 568.15L194.57 569.08M194.57 569.08L194.43 570.01M194.43 570.01L194.31 570.92M194.31 570.92L194.18 571.83M194.18 571.83L194.07 572.73M194.07 572.73L193.97 573.61M193.97 573.61L193.88 574.49M193.88 574.49L193.8 575.35M193.8 575.35L193.77 575.77M193.77 575.77L193.74 576.2M193.74 576.2L193.71 576.61M193.71 576.61L193.69 577.03M193.69 577.03L193.68 577.43M193.68 577.43L193.67 577.84M193.67 577.84L193.66 578.24M193.66 578.24L193.66 578.63M193.66 578.63L193.67 579.02M193.67 579.02L193.68 579.41M193.68 579.41L193.7 579.79M193.7 579.79L193.72 580.16M193.72 580.16L193.75 580.53M193.75 580.53L193.79 580.89M193.79 580.89L193.83 581.25M193.83 581.25L193.88 581.6M193.88 581.6L193.94 581.95M193.94 581.95L194.01 582.29M194.01 582.29L194.08 582.62M194.08 582.62L194.16 582.95M194.16 582.95L194.24 583.27M194.24 583.27L194.33 583.59M194.33 583.59L194.43 583.9M194.43 583.9L194.54 584.2M194.54 584.2L194.65 584.5M194.65 584.5L194.77 584.8M194.77 584.8L194.89 585.08M194.89 585.08L195.03 585.37M195.03 585.37L195.16 585.64M195.16 585.64L195.31 585.92M195.31 585.92L195.46 586.18M195.46 586.18L195.62 586.44M195.62 586.44L195.78 586.7M195.78 586.7L195.95 586.95M195.95 586.95L196.12 587.2M196.12 587.2L196.3 587.44M196.3 587.44L196.49 587.67M196.49 587.67L196.69 587.9M196.69 587.9L196.88 588.13M196.88 588.13L197.09 588.35M197.09 588.35L197.3 588.56M197.3 588.56L197.52 588.77M197.52 588.77L197.74 588.98M197.74 588.98L197.97 589.18M197.97 589.18L198.2 589.38M198.2 589.38L198.44 589.57M198.44 589.57L198.69 589.76M198.69 589.76L198.94 589.94M198.94 589.94L199.19 590.12M199.19 590.12L199.45 590.29M199.45 590.29L199.72 590.46M199.72 590.46L199.99 590.62M199.99 590.62L200.27 590.78M200.27 590.78L200.55 590.94M200.55 590.94L200.84 591.09M200.84 591.09L201.13 591.23M201.13 591.23L201.43 591.38M201.43 591.38L201.73 591.52M201.73 591.52L202.04 591.65M202.04 591.65L202.35 591.78M202.35 591.78L202.67 591.91M202.67 591.91L202.99 592.03M202.99 592.03L203.32 592.15M203.32 592.15L203.65 592.26M203.65 592.26L203.98 592.37M203.98 592.37L204.32 592.48M204.32 592.48L204.67 592.58M204.67 592.58L205.02 592.68M205.02 592.68L205.37 592.78M205.37 592.78L205.73 592.87M205.73 592.87L206.09 592.96M206.09 592.96L206.46 593.04M206.46 593.04L207.21 593.2M207.21 593.2L207.97 593.34M207.97 593.34L208.75 593.48M208.75 593.48L209.55 593.59M209.55 593.59L210.36 593.7M210.36 593.7L211.18 593.79M211.18 593.79L212.02 593.87M212.02 593.87L212.88 593.94M212.88 593.94L213.75 594M213.75 594L214.63 594.05M214.63 594.05L215.53 594.08M215.53 594.08L216.43 594.11M216.43 594.11L217.35 594.13M217.35 594.13L218.29 594.13M218.29 594.13L219.23 594.13M219.23 594.13L220.18 594.12M220.18 594.12L221.15 594.1M221.15 594.1L222.13 594.07M222.13 594.07L223.11 594.03M223.11 594.03L224.11 593.99M224.11 593.99L225.11 593.94M225.11 593.94L226.13 593.88M226.13 593.88L227.15 593.81M227.15 593.81L228.18 593.74M228.18 593.74L229.21 593.66M229.21 593.66L230.26 593.58M230.26 593.58L231.31 593.49M231.31 593.49L232.37 593.4M232.37 593.4L233.43 593.3M233.43 593.3L234.5 593.2M234.5 593.2L235.57 593.1M235.57 593.1L236.65 592.99M236.65 592.99L238.83 592.76M238.83 592.76L241.01 592.53M241.01 592.53L243.21 592.29M243.21 592.29L247.63 591.79M247.63 591.79L252.05 591.31M252.05 591.31L254.26 591.07M254.26 591.07L256.46 590.85M256.46 590.85L258.65 590.63M258.65 590.63L259.74 590.53M259.74 590.53L260.83 590.44M260.83 590.44L261.91 590.34M261.91 590.34L262.99 590.26M262.99 590.26L264.06 590.17M264.06 590.17L265.13 590.1M265.13 590.1L266.19 590.03M266.19 590.03L267.25 589.96M267.25 589.96L268.3 589.9M268.3 589.9L269.34 589.85M269.34 589.85L270.38 589.81M270.38 589.81L271.4 589.77M271.4 589.77L272.42 589.75M272.42 589.75L273.43 589.73M273.43 589.73L274.44 589.71M274.44 589.71L275.43 589.71M275.43 589.71L276.41 589.72M276.41 589.72L277.38 589.73M277.38 589.73L278.35 589.76M278.35 589.76L279.31 589.79M279.31 589.79L280.25 589.83M280.25 589.83L281.19 589.88M281.19 589.88L282.13 589.94M282.13 589.94L283.05 590M283.05 590L283.97 590.07M283.97 590.07L284.87 590.15M284.87 590.15L285.78 590.23M285.78 590.23L286.67 590.32M286.67 590.32L287.56 590.42M287.56 590.42L288.44 590.52M288.44 590.52L289.31 590.63M289.31 590.63L290.18 590.74M290.18 590.74L291.05 590.86M291.05 590.86L291.9 590.98M291.9 590.98L292.76 591.11M292.76 591.11L293.6 591.24M293.6 591.24L294.44 591.38M294.44 591.38L295.28 591.52M295.28 591.52L296.11 591.67M296.11 591.67L296.94 591.82M296.94 591.82L298.59 592.12M298.59 592.12L300.22 592.44M300.22 592.44L301.84 592.77M301.84 592.77L303.44 593.1M303.44 593.1L305.04 593.44M305.04 593.44L306.63 593.79M306.63 593.79L308.21 594.13M308.21 594.13L311.37 594.82M311.37 594.82L312.95 595.16M312.95 595.16L314.52 595.49M314.52 595.49L316.11 595.81M316.11 595.81L317.69 596.13M317.69 596.13L319.28 596.43M319.28 596.43L320.89 596.72M320.89 596.72L322.5 596.99M322.5 596.99L323.31 597.12M323.31 597.12L324.12 597.25M324.12 597.25L324.94 597.37M324.94 597.37L325.76 597.48M325.76 597.48L326.58 597.59M326.58 597.59L327.41 597.7M327.41 597.7L328.24 597.8M328.24 597.8L329.08 597.89M329.08 597.89L329.92 597.97M329.92 597.97L330.77 598.05M330.77 598.05L331.62 598.13M331.62 598.13L332.47 598.19M332.47 598.19L333.34 598.25M333.34 598.25L334.21 598.3M334.21 598.3L335.08 598.35M335.08 598.35L335.96 598.38M335.96 598.38L336.84 598.41M336.84 598.41L337.72 598.43M337.72 598.43L338.61 598.44M338.61 598.44L339.51 598.45M339.51 598.45L340.4 598.45M340.4 598.45L341.3 598.44M341.3 598.44L342.2 598.42M342.2 598.42L343.11 598.39M343.11 598.39L344.01 598.36M344.01 598.36L344.92 598.31M344.92 598.31L345.83 598.26M345.83 598.26L346.74 598.2M346.74 598.2L347.65 598.13M347.65 598.13L348.55 598.06M348.55 598.06L349.46 597.97M349.46 597.97L350.37 597.88M350.37 597.88L351.28 597.77M351.28 597.77L352.19 597.66M352.19 597.66L353.09 597.54M353.09 597.54L353.99 597.41M353.99 597.41L354.89 597.27M354.89 597.27L355.79 597.13M355.79 597.13L356.69 596.97M356.69 596.97L357.58 596.8M357.58 596.8L358.47 596.63M358.47 596.63L359.35 596.44M359.35 596.44L360.24 596.25M360.24 596.25L361.11 596.04M361.11 596.04L361.98 595.83M361.98 595.83L362.85 595.6M362.85 595.6L363.71 595.37M363.71 595.37L364.57 595.13M364.57 595.13L365.42 594.87M365.42 594.87L366.26 594.61M366.26 594.61L367.09 594.34M367.09 594.34L367.92 594.05M367.92 594.05L368.74 593.76M368.74 593.76L369.56 593.45M369.56 593.45L370.36 593.14M370.36 593.14L371.16 592.81M371.16 592.81L371.95 592.48M371.95 592.48L372.73 592.13M372.73 592.13L373.5 591.78M373.5 591.78L374.26 591.41M374.26 591.41L375.01 591.03M375.01 591.03L375.75 590.64M375.75 590.64L376.48 590.24M376.48 590.24L377.2 589.83M377.2 589.83L377.9 589.4M377.9 589.4L378.6 588.97M378.6 588.97L379.28 588.53M379.28 588.53L379.95 588.07M379.95 588.07L380.61 587.6M380.61 587.6L381.26 587.12M381.26 587.12L381.89 586.63M381.89 586.63L382.51 586.13M382.51 586.13L383.11 585.61M383.11 585.61L383.7 585.09M383.7 585.09L384.28 584.55M384.28 584.55L384.84 584M384.84 584L385.38 583.44M385.38 583.44L385.91 582.86M385.91 582.86L386.43 582.28M386.43 582.28L386.93 581.68M386.93 581.68L387.42 581.07M387.42 581.07L387.89 580.46M387.89 580.46L388.35 579.83M388.35 579.83L388.8 579.19M388.8 579.19L389.24 578.54M389.24 578.54L389.66 577.88M389.66 577.88L390.07 577.21M390.07 577.21L390.46 576.53M390.46 576.53L390.85 575.84M390.85 575.84L391.22 575.14M391.22 575.14L391.58 574.43M391.58 574.43L391.93 573.71M391.93 573.71L392.27 572.99M392.27 572.99L392.6 572.26M392.6 572.26L392.92 571.51M392.92 571.51L393.23 570.76M393.23 570.76L393.53 570M393.53 570L393.81 569.24M393.81 569.24L394.09 568.46M394.09 568.46L394.36 567.68M394.36 567.68L394.62 566.89M394.62 566.89L394.87 566.1M394.87 566.1L395.11 565.3M395.11 565.3L395.35 564.49M395.35 564.49L395.57 563.67M395.57 563.67L395.79 562.85M395.79 562.85L396 562.02M396 562.02L396.21 561.19M396.21 561.19L396.4 560.35M396.4 560.35L396.59 559.51M396.59 559.51L396.78 558.66M396.78 558.66L396.95 557.81M396.95 557.81L397.12 556.95M397.12 556.95L397.29 556.08M397.29 556.08L397.45 555.21M397.45 555.21L397.6 554.34M397.6 554.34L397.75 553.46M397.75 553.46L397.89 552.58M397.89 552.58L398.03 551.7M398.03 551.7L398.17 550.81M398.17 550.81L398.42 549.03M398.42 549.03L398.67 547.23M398.67 547.23L398.9 545.43M398.9 545.43L399.12 543.61M399.12 543.61L399.33 541.79M399.33 541.79L399.53 539.96M399.53 539.96L399.73 538.13M399.73 538.13L400.13 534.47M400.13 534.47L400.53 530.81M400.53 530.81L400.74 528.98M400.74 528.98L400.95 527.17M400.95 527.17L401.17 525.35M401.17 525.35L401.41 523.55M401.41 523.55L401.66 521.76M401.66 521.76L401.92 519.98M401.92 519.98L402.06 519.09M402.06 519.09L402.2 518.21M402.2 518.21L402.35 517.33M402.35 517.33L402.5 516.46M402.5 516.46L402.81 514.72M402.81 514.72L403.15 513M403.15 513L403.49 511.28M403.49 511.28L403.86 509.58M403.86 509.58L404.24 507.89M404.24 507.89L404.63 506.22M404.63 506.22L405.03 504.55M405.03 504.55L405.45 502.89M405.45 502.89L405.88 501.24M405.88 501.24L406.32 499.6M406.32 499.6L406.77 497.97M406.77 497.97L407.23 496.35M407.23 496.35L407.7 494.73M407.7 494.73L408.18 493.12M408.18 493.12L408.67 491.52M408.67 491.52L409.16 489.92M409.16 489.92L409.65 488.32M409.65 488.32L410.16 486.73M410.16 486.73L411.17 483.56M411.17 483.56L412.2 480.4M412.2 480.4L413.24 477.24"
fill="none" stroke="black" stroke-width="0.5"/>
<path d="M412.11 339.47L412.28 341.03M412.28 341.03L412.8 342.52M412.8 342.52L413.64 343.85M413.64 343.85L414.75 344.96M414.75 344.96L416.08 345.8M416.08 345.8L417.56 346.32M417.56 346.32L419.13 346.5M419.13 346.5L420.69 346.32M420.69 346.32L422.18 345.8M422.18 345.8L423.51 344.96M423.51 344.96L424.62 343.85M424.62 343.85L425.46 342.52M425.46 342.52L425.97 341.03M425.97 341.03L426.15 339.47"
fill="none" stroke="black" stroke-width="0.5"/>
<path d="M398.25 359.64L398.25 354.94"
fill="none" stroke="black" stroke-width="0.5"/>
<path d="M398.28 354.91L415.8 354.91"
fill="none" stroke="black" stroke-width="0.5"/>
<path d="M398.28 354.91L398.25 354.94"
fill="none" stroke="black" stroke-width="0.5"/>
<path d="M415.8 355.61L398.99 355.61"
fill="none" stroke="black" stroke-width="0.5"/>
<path d="M398.99 355.61L398.95 355.65"
fill="none" stroke="black" stroke-width="0.5"/>
<path d="M398.95 355.65L398.95 359.64"
fill="none" stroke="black" stroke-width="0.5"/>
<path d="M415.8 354.91L418.39 354.91"
fill="none" stroke="black" stroke-width="0.5"/>
<path d="M415.8 355.61L419.79 355.61"
fill="none" stroke="black" stroke-width="0.5"/>
<path d="M419.83 346.46L419.83 355.58"
fill="none" stroke="black" stroke-width="0.5"/>
<path d="M419.79 355.61L419.83 355.58"
fill="none" stroke="black" stroke-width="0.5"/>
<path d="M418.42 346.46L418.42 354.87"
fill="none" stroke="black" stroke-width="0.5"/>
<path d="M418.39 354.91L418.42 354.87"
fill="none" stroke="black" stroke-width="0.5"/>
<path d="M432.22 357.74L432.22 352.48"
fill="none" stroke="black" stroke-width="0.5"/>
<path d="M432.22 352.48L481.35 352.48"
fill="none" stroke="black" stroke-width="0.5"/>
<path d="M481.35 352.48L481.35 357.74"
fill="none" stroke="black" stroke-width="0.5"/>
<path d="M433.17 335.96L433.17 352.48"
fill="none" stroke="black" stroke-width="0.5"/>
<path d="M412.11 268.33L408.6 268.33"
fill="none" stroke="black" stroke-width="0.5"/>
<path d="M408.6 268.33L408.6 264.82"
fill="none" stroke="black" stroke-width="0.5"/>
<path d="M408.6 264.82L426.15 264.82"
fill="none" stroke="black" stroke-width="0.5"/>
<path d="M426.15 264.82L429.66 264.82"
fill="none" stroke="black" stroke-width="0.5"/>
<path d="M429.66 264.82L429.66 268.33"
fill="none" stroke="black" stroke-width="0.5"/>
<path d="M429.66 268.33L412.11 268.33"
fill="none" stroke="black" stroke-width="0.5"/>
<path d="M412.11 284.61L408.6 284.61"
fill="none" stroke="black" stroke-width="0.5"/>
<path d="M408.6 284.61L408.6 281.1"
fill="none" stroke="black" stroke-width="0.5"/>
<path d="M408.6 281.1L426.15 281.1"
fill="none" stroke="black" stroke-width="0.5"/>
<path d="M426.15 281.1L429.66 281.1"
fill="none" stroke="black" stroke-width="0.5"/>
<path d="M429.66 281.1L429.66 284.61"
fill="none" stroke="black" stroke-width="0.5"/>
<path d="M429.66 284.61L412.11 284.61"
fill="none" stroke="black" stroke-width="0.5"/>
<path d="M412.11 244.97L410.35 245.15M410.35 245.15L408.67 245.69M408.67 245.69L407.14 246.57M407.14 246.57L405.83 247.74M405.83 247.74L404.79 249.17M404.79 249.17L404.07 250.78M404.07 250.78L403.7 252.5M403.7 252.5L403.7 254.27M403.7 254.27L404.07 255.99M404.07 255.99L404.79 257.6M404.79 257.6L405.83 259.03M405.83 259.03L407.14 260.21M407.14 260.21L408.67 261.09M408.67 261.09L410.35 261.63M410.35 261.63L412.11 261.8"
fill="none" stroke="black" stroke-width="0.5"/>
<path d="M412.11 244.97L434.53 244.97"
fill="none" stroke="black" stroke-width="0.5"/>
<path d="M434.53 244.97L434.53 261.8"
fill="none" stroke="black" stroke-width="0.5"/>
<path d="M434.53 261.8L412.08 261.8"
fill="none" stroke="black" stroke-width="0.5"/>
<path d="M434.53 249.18L457.13 249.18"
fill="none" stroke="black" stroke-width="0.5"/>
<path d="M457.13 249.18L457.13 252.69"
fill="none" stroke="black" stroke-width="0.5"/>
<path d="M457.13 252.69L434.53 253.39"
fill="none" stroke="black" stroke-width="0.5"/>
<path d="M457.13 249.18L457.13 233.31"
fill="none" stroke="black" stroke-width="0.5"/>
<path d="M457.13 233.31L464.73 246.49"
fill="none" stroke="black" stroke-width="0.5"/>
<path d="M457.13 252.33L457.13 268.19"
fill="none" stroke="black" stroke-width="0.5"/>
<path d="M457.13 268.19L464.73 255.02"
fill="none" stroke="black" stroke-width="0.5"/>
<path d="M462.16 242.03L462.16 259.47"
fill="none" stroke="black" stroke-width="0.5"/>
<path d="M464.73 246.49L464.73 255.02"
fill="none" stroke="black" stroke-width="0.5"/>
<path d="M412.11 82.85L408.6 82.85"
fill="none" stroke="black" stroke-width="0.5"/>
<path d="M408.6 82.85L408.6 79.34"
fill="none" stroke="black" stroke-width="0.5"/>
<path d="M408.6 79.34L426.15 79.34"
fill="none" stroke="black" stroke-width="0.5"/>
<path d="M426.15 79.34L429.66 79.34"
fill="none" stroke="black" stroke-width="0.5"/>
<path d="M429.66 79.34L429.66 82.85"
fill="none" stroke="black" stroke-width="0.5"/>
<path d="M429.66 82.85L412.11 82.85"
fill="none" stroke="black" stroke-width="0.5"/>
<path d="M412.11 79.34L411.68 75.92M411.68 75.92L410.88 72.55M410.88 72.55L409.73 69.3M409.73 69.3L408.24 66.18M408.24 66.18L406.42 63.24M406.42 63.24L404.3 60.51M404.3 60.51L401.9 58.03M401.9 58.03L399.25 55.81M399.25 55.81L396.38 53.89M396.38 53.89L393.32 52.29M393.32 52.29L390.11 51.02M390.11 51.02L386.78 50.1M386.78 50.1L383.37 49.55M383.37 49.55L379.92 49.36"
fill="none" stroke="black" stroke-width="0.5"/>
<path d="M426.15 79.34L425.51 75.05M425.51 75.05L424.49 70.83M424.49 70.83L423.11 66.72M423.11 66.72L421.37 62.74M421.37 62.74L419.28 58.94M419.28 58.94L416.87 55.33M416.87 55.33L414.15 51.95M414.15 51.95L411.14 48.82M411.14 48.82L407.87 45.96M407.87 45.96L404.36 43.41M404.36 43.41L400.64 41.18M400.64 41.18L396.73 39.28M396.73 39.28L392.68 37.74M392.68 37.74L388.5 36.56M388.5 36.56L384.23 35.75M384.23 35.75L379.92 35.32"
fill="none" stroke="black" stroke-width="0.5"/>
<path d="M379.92 49.36L379.92 35.32"
fill="none" stroke="black" stroke-width="0.5"/>
<path d="M379.92 35.32L379.92 49.36"
fill="none" stroke="black" stroke-width="0.5"/>
<path d="M379.92 49.36L379.92 52.87"
fill="none" stroke="black" stroke-width="0.5"/>
<path d="M379.92 52.87L376.41 52.87"
fill="none" stroke="black" stroke-width="0.5"/>
<path d="M376.41 52.87L376.41 35.32"
fill="none" stroke="black" stroke-width="0.5"/>
<path d="M376.41 35.32L376.41 31.81"
fill="none" stroke="black" stroke-width="0.5"/>
<path d="M376.41 31.81L379.92 31.81"
fill="none" stroke="black" stroke-width="0.5"/>
<path d="M379.92 31.81L379.92 49.36"
fill="none" stroke="black" stroke-width="0.5"/>
<path d="M376.41 35.32L348.33 35.32"
fill="none" stroke="black" stroke-width="0.5"/>
<path d="M348.33 35.32L348.33 49.36"
fill="none" stroke="black" stroke-width="0.5"/>
<path d="M348.33 49.36L376.41 49.36"
fill="none" stroke="black" stroke-width="0.5"/>
<path d="M348.33 35.32L351.82 35"
fill="none" stroke="black" stroke-width="0.5"/>
<path d="M351.82 35L351.82 1.7"
fill="none" stroke="black" stroke-width="0.5"/>
<path d="M351.82 49.36L351.82 84.46"
fill="none" stroke="black" stroke-width="0.5"/>
<path d="M351.82 84.46L192.05 84.46"
fill="none" stroke="black" stroke-width="0.5"/>
<path d="M192.05 84.46L192.05 1.7"
fill="none" stroke="black" stroke-width="0.5"/>
<path d="M192.05 1.7L351.82 1.7"
fill="none" stroke="black" stroke-width="0.5"/>
<path d="M564.8 364.52L613.94 364.52"
fill="none" stroke="black" stroke-width="0.5"/>
<path d="M564.8 364.52L564.8 357.2"
fill="none" stroke="black" stroke-width="0.5"/>
<path d="M564.8 357.2L561.29 357.2"
fill="none" stroke="black" stroke-width="0.5"/>
<path d="M561.29 357.2L561.29 364.22"
fill="none" stroke="black" stroke-width="0.5"/>
<path d="M561.29 364.22L557.78 364.22"
fill="none" stroke="black" stroke-width="0.5"/>
<path d="M557.78 364.22L557.78 272.39"
fill="none" stroke="black" stroke-width="0.5"/>
<path d="M557.78 272.39L561.29 272.39"
fill="none" stroke="black" stroke-width="0.5"/>
<path d="M561.29 272.39L561.29 357.2"
fill="none" stroke="black" stroke-width="0.5"/>
<path d="M535.73 335.09L536.1 337.9M536.1 337.9L536.79 340.65M536.79 340.65L537.81 343.3M537.81 343.3L539.14 345.8M539.14 345.8L540.75 348.13M540.75 348.13L542.63 350.26M542.63 350.26L544.75 352.14M544.75 352.14L547.07 353.76M547.07 353.76L549.58 355.1M549.58 355.1L552.22 356.12M552.22 356.12L554.97 356.83M554.97 356.83L557.78 357.2"
fill="none" stroke="black" stroke-width="0.5"/>
<path d="M557.78 279.41L554.97 279.79M554.97 279.79L552.22 280.49M552.22 280.49L549.58 281.52M549.58 281.52L547.07 282.85M547.07 282.85L544.75 284.47M544.75 284.47L542.63 286.35M542.63 286.35L540.75 288.48M540.75 288.48L539.14 290.81M539.14 290.81L537.81 293.32M537.81 293.32L536.79 295.96M536.79 295.96L536.1 298.71M536.1 298.71L535.73 301.53"
fill="none" stroke="black" stroke-width="0.5"/>
<path d="M535.73 301.53L535.73 335.09"
fill="none" stroke="black" stroke-width="0.5"/>
<path d="M531.18 329.24L531.71 330.38M531.71 330.38L532.47 331.4M532.47 331.4L533.42 332.23M533.42 332.23L534.53 332.85M534.53 332.85L535.73 333.22"
fill="none" stroke="black" stroke-width="0.5"/>
<path d="M535.73 303.39L534.53 303.77M534.53 303.77L533.42 304.38M533.42 304.38L532.47 305.22M532.47 305.22L531.71 306.23M531.71 306.23L531.18 307.38"
fill="none" stroke="black" stroke-width="0.5"/>
<path d="M531.18 307.38L531.18 329.24"
fill="none" stroke="black" stroke-width="0.5"/>
<path d="M613.94 364.52L613.94 357.2"
fill="none" stroke="black" stroke-width="0.5"/>
<path d="M613.94 357.2L617.45 357.2"
fill="none" stroke="black" stroke-width="0.5"/>
<path d="M617.45 357.2L617.45 364.22"
fill="none" stroke="black" stroke-width="0.5"/>
<path d="M617.45 364.22L620.96 364.22"
fill="none" stroke="black" stroke-width="0.5"/>
<path d="M620.96 364.22L620.96 272.39"
fill="none" stroke="black" stroke-width="0.5"/>
<path d="M620.96 272.39L617.45 272.39"
fill="none" stroke="black" stroke-width="0.5"/>
<path d="M617.45 272.39L617.45 357.2"
fill="none" stroke="black" stroke-width="0.5"/>
<path d="M620.96 357.2L623.77 356.83M623.77 356.83L626.52 356.12M626.52 356.12L629.16 355.1M629.16 355.1L631.67 353.76M631.67 353.76L633.99 352.14M633.99 352.14L636.11 350.26M636.11 350.26L637.99 348.13M637.99 348.13L639.6 345.8M639.6 345.8L640.93 343.3M640.93 343.3L641.95 340.65M641.95 340.65L642.64 337.9M642.64 337.9L643.01 335.09"
fill="none" stroke="black" stroke-width="0.5"/>
<path d="M643.01 301.53L642.64 298.71M642.64 298.71L641.95 295.96M641.95 295.96L640.93 293.32M640.93 293.32L639.6 290.81M639.6 290.81L637.99 288.48M637.99 288.48L636.11 286.35M636.11 286.35L633.99 284.47M633.99 284.47L631.67 282.85M631.67 282.85L629.16 281.52M629.16 281.52L626.52 280.49M626.52 280.49L623.77 279.79M623.77 279.79L620.96 279.41"
fill="none" stroke="black" stroke-width="0.5"/>
<path d="M643.01 301.53L643.01 335.09"
fill="none" stroke="black" stroke-width="0.5"/>
<path d="M643.01 333.22L644.21 332.85M644.21 332.85L645.32 332.23M645.32 332.23L646.27 331.4M646.27 331.4L647.03 330.38M647.03 330.38L647.56 329.24"
fill="none" stroke="black" stroke-width="0.5"/>
<path d="M647.56 307.38L647.03 306.23M647.03 306.23L646.27 305.22M646.27 305.22L645.32 304.38M645.32 304.38L644.21 303.77M644.21 303.77L643.01 303.39"
fill="none" stroke="black" stroke-width="0.5"/>
<path d="M647.56 307.38L647.56 329.24"
fill="none" stroke="black" stroke-width="0.5"/>
<path d="M561.29 279.06L617.45 279.06"
fill="none" stroke="black" stroke-width="0.5"/>
<path d="M589.37 275.71L596.39 275.71"
fill="none" stroke="black" stroke-width="0.5"/>
<path d="M596.39 275.71L596.39 279.06"
fill="none" stroke="black" stroke-width="0.5"/>
<path d="M589.37 275.71L582.35 275.71"
fill="none" stroke="black" stroke-width="0.5"/>
<path d="M582.35 275.71L582.35 279.06"
fill="none" stroke="black" stroke-width="0.5"/>
<path d="M593.29 275.71L594.61 274.64M594.61 274.64L595.64 273.29M595.64 273.29L596.33 271.73M596.33 271.73L596.64 270.06M596.64 270.06L596.56 268.36M596.56 268.36L596.08 266.72M596.08 266.72L595.24 265.24M595.24 265.24L594.08 264M594.08 264L592.66 263.06M592.66 263.06L591.06 262.48M591.06 262.48L589.37 262.28M589.37 262.28L587.68 262.48M587.68 262.48L586.08 263.06M586.08 263.06L584.66 264M584.66 264L583.5 265.24M583.5 265.24L582.66 266.72M582.66 266.72L582.18 268.36M582.18 268.36L582.1 270.06M582.1 270.06L582.41 271.73M582.41 271.73L583.1 273.29M583.1 273.29L584.13 274.64M584.13 274.64L585.45 275.71"
fill="none" stroke="black" stroke-width="0.5"/>
<path d="M592.18 275.71L593.54 274.89M593.54 274.89L594.66 273.77M594.66 273.77L595.5 272.41M595.5 272.41L595.99 270.9M595.99 270.9L596.12 269.32M596.12 269.32L595.88 267.74M595.88 267.74L595.27 266.27M595.27 266.27L594.34 264.99M594.34 264.99L593.13 263.95M593.13 263.95L591.71 263.23M591.71 263.23L590.17 262.86M590.17 262.86L588.57 262.86M588.57 262.86L587.03 263.23M587.03 263.23L585.61 263.95M585.61 263.95L584.4 264.99M584.4 264.99L583.47 266.27M583.47 266.27L582.86 267.74M582.86 267.74L582.62 269.32M582.62 269.32L582.75 270.9M582.75 270.9L583.24 272.41M583.24 272.41L584.08 273.77M584.08 273.77L585.2 274.89M585.2 274.89L586.56 275.71"
fill="none" stroke="black" stroke-width="0.5"/>
<path d="M653.23 318.31L653.23 314.8"
fill="none" stroke="black" stroke-width="0.5"/>
<path d="M653.23 318.31L653.23 321.82"
fill="none" stroke="black" stroke-width="0.5"/>
<path d="M653.23 314.8L652.88 313.44M652.88 313.44L652.24 312.2M652.24 312.2L651.33 311.14M651.33 311.14L650.21 310.3M650.21 310.3L648.93 309.73M648.93 309.73L647.56 309.47"
fill="none" stroke="black" stroke-width="0.5"/>
<path d="M647.56 327.14L648.93 326.88M648.93 326.88L650.21 326.31M650.21 326.31L651.33 325.48M651.33 325.48L652.24 324.41M652.24 324.41L652.88 323.17M652.88 323.17L653.23 321.82"
fill="none" stroke="black" stroke-width="0.5"/>
<path d="M522.74 318.31L531.18 318.31"
fill="none" stroke="black" stroke-width="0.5"/>
<path d="M522.74 318.31L522.74 311.29"
fill="none" stroke="black" stroke-width="0.5"/>
<path d="M522.74 318.31L522.74 325.33"
fill="none" stroke="black" stroke-width="0.5"/>
<path d="M522.74 325.33L512.21 325.33"
fill="none" stroke="black" stroke-width="0.5"/>
<path d="M512.21 325.33L512.21 311.29"
fill="none" stroke="black" stroke-width="0.5"/>
<path d="M512.21 311.29L522.74 311.29"
fill="none" stroke="black" stroke-width="0.5"/>
<path d="M512.21 325.33L512.21 332.35"
fill="none" stroke="black" stroke-width="0.5"/>
<path d="M512.21 332.35L508.7 332.35"
fill="none" stroke="black" stroke-width="0.5"/>
<path d="M512.21 311.29L512.21 304.27"
fill="none" stroke="black" stroke-width="0.5"/>
<path d="M512.21 304.27L508.7 304.27"
fill="none" stroke="black" stroke-width="0.5"/>
<path d="M508.7 304.27L508.7 332.35"
fill="none" stroke="black" stroke-width="0.5"/>
<path d="M494.66 318.31L494.66 311.29"
fill="none" stroke="black" stroke-width="0.5"/>
<path d="M494.66 318.31L494.66 325.33"
fill="none" stroke="black" stroke-width="0.5"/>
<path d="M494.66 325.33L505.19 325.33"
fill="none" stroke="black" stroke-width="0.5"/>
<path d="M505.19 325.33L505.19 311.29"
fill="none" stroke="black" stroke-width="0.5"/>
<path d="M505.19 311.29L494.66 311.29"
fill="none" stroke="black" stroke-width="0.5"/>
<path d="M505.19 325.33L505.19 332.35"
fill="none" stroke="black" stroke-width="0.5"/>
<path d="M505.19 332.35L508.7 332.35"
fill="none" stroke="black" stroke-width="0.5"/>
<path d="M505.19 311.29L505.19 304.27"
fill="none" stroke="black" stroke-width="0.5"/>
<path d="M505.19 304.27L508.7 304.27"
fill="none" stroke="black" stroke-width="0.5"/>
<path d="M508.7 304.27L508.7 332.35"
fill="none" stroke="black" stroke-width="0.5"/>
<path d="M494.66 318.31L433.17 318.31"
fill="none" stroke="black" stroke-width="0.5"/>
<path d="M481.88 318.31L481.88 306.02"
fill="none" stroke="black" stroke-width="0.5"/>
<path d="M481.88 318.31L481.88 311.29"
fill="none" stroke="black" stroke-width="0.5"/>
<path d="M481.88 311.29L485.39 311.29"
fill="none" stroke="black" stroke-width="0.5"/>
<path d="M485.39 311.29L485.39 318.31"
fill="none" stroke="black" stroke-width="0.5"/>
<path d="M481.88 318.31L481.88 325.33"
fill="none" stroke="black" stroke-width="0.5"/>
<path d="M481.88 325.33L485.39 325.33"
fill="none" stroke="black" stroke-width="0.5"/>
<path d="M485.39 325.33L485.39 318.31"
fill="none" stroke="black" stroke-width="0.5"/>
<path d="M480.13 304.27L446.99 304.27"
fill="none" stroke="black" stroke-width="0.5"/>
<path d="M481.88 306.02L481.75 305.35M481.75 305.35L481.37 304.78M481.37 304.78L480.8 304.4M480.8 304.4L480.13 304.27"
fill="none" stroke="black" stroke-width="0.5"/>
<path d="M446.99 304.27L446.31 304.4M446.31 304.4L445.75 304.78M445.75 304.78L445.36 305.35M445.36 305.35L445.23 306.02"
fill="none" stroke="black" stroke-width="0.5"/>
<path d="M445.23 306.02L445.23 318.31"
fill="none" stroke="black" stroke-width="0.5"/>
<path d="M481.88 325.33L481.35 352.48"
fill="none" stroke="black" stroke-width="0.5"/>
<path d="M481.84 327.56L459.03 327.56"
fill="none" stroke="black" stroke-width="0.5"/>
<path d="M459.03 327.56L457.78 327.72M457.78 327.72L456.62 328.18M456.62 328.18L455.59 328.9M455.59 328.9L454.77 329.85M454.77 329.85L454.2 330.96M454.2 330.96L453.91 332.18M453.91 332.18L453.92 333.44"
fill="none" stroke="black" stroke-width="0.5"/>
<path d="M564.8 364.52L564.8 367.12"
fill="none" stroke="black" stroke-width="0.5"/>
<path d="M613.94 364.52L613.94 367.12"
fill="none" stroke="black" stroke-width="0.5"/>
</svg>
