<svg xmlns="http://www.w3.org/2000/svg" xmlns:xlink="http://www.w3.org/1999/xlink" version="1.1" width="595pt" height="842pt" viewBox="0 0 595 842">
<defs>
<clipPath id="clip_0">
<path transform="matrix(.12,0,0,-.12,14,794)" d="M273 0H3231V5890H273V0"/>
</clipPath>
<clipPath id="clip_1">
<path transform="matrix(.12,0,0,-.12,14,794)" d="M273 0H3231V5890H273V0"/>
</clipPath>
<clipPath id="clip_2">
<path transform="matrix(.12,0,0,-.12,14,794)" d="M273 0H3231V5890H273V0"/>
</clipPath>
</defs>
<g clip-path="url(#clip_0)">
<g id="layer_1" data-name="">
<path transform="matrix(.12,0,0,-.12,14,794)" stroke-width="13" stroke-linecap="round" stroke-linejoin="round" fill="none" stroke="#000000" d="M346 5750V43H3198V5750H346"/>
</g>
</g>
<g clip-path="url(#clip_1)">
<g id="layer_1" data-name="">
<text xml:space="preserve" transform="matrix(.12 0 -0 .12 14 794)" font-size="552.173" font-family="ArialMT"><tspan y="-2142" x="1361 1637.0864">kW</tspan></text>
</g>
<g clip-path="url(#clip_2)">
<text xml:space="preserve" transform="matrix(.12 0 -0 .12 14 794)" font-size="552.173" font-family="ArialMT"><tspan y="-2149" x="1361 1637.0864">kW</tspan></text>
<path transform="matrix(.12,0,0,-.12,14,794)" stroke-width="13" stroke-linecap="round" stroke-linejoin="round" fill="none" stroke="#000000" d="M395 2696H3143V4090H395V2696"/>
<text xml:space="preserve" transform="matrix(.12 0 -0 .12 14 794)" font-size="184.057" font-family="ArialMT"><tspan y="-4276" x="588 710.76608 813.10177 897.39987 981.69796 1108.3291 1210.6648 1294.9629 1397.2986 1448.4664 1550.8021 1658.1074 1759.7069 1862.0426 2013.5215 2115.8572 2200.1553 2302.491 2400.2254 2532.5623">&#x0412;&#x0430;&#x0442;&#x0442;&#x043c;&#x0435;&#x0442;&#x0440; &#x043e;&#x0434;&#x043d;&#x043e;&#x0444;&#x0430;&#x0437;&#x043e;&#x0432;&#x044b;&#x0439;</tspan></text>
<path transform="matrix(.12,0,0,-.12,14,794)" stroke-width="13" stroke-linecap="round" stroke-linejoin="round" fill="none" stroke="#000000" d="M346 5059H572"/>
<path transform="matrix(.12,0,0,-.12,14,794)" stroke-width="13" stroke-linecap="round" stroke-linejoin="round" fill="none" stroke="#000000" d="M674 5059H803"/>
<path transform="matrix(.12,0,0,-.12,14,794)" stroke-width="13" stroke-linecap="round" stroke-linejoin="round" fill="none" stroke="#000000" d="M905 5059H1033"/>
<path transform="matrix(.12,0,0,-.12,14,794)" stroke-width="13" stroke-linecap="round" stroke-linejoin="round" fill="none" stroke="#000000" d="M1135 5059H1264"/>
<path transform="matrix(.12,0,0,-.12,14,794)" stroke-width="13" stroke-linecap="round" stroke-linejoin="round" fill="none" stroke="#000000" d="M1366 5059H1494"/>
<path transform="matrix(.12,0,0,-.12,14,794)" stroke-width="13" stroke-linecap="round" stroke-linejoin="round" fill="none" stroke="#000000" d="M1596 5059H1725"/>
<path transform="matrix(.12,0,0,-.12,14,794)" stroke-width="13" stroke-linecap="round" stroke-linejoin="round" fill="none" stroke="#000000" d="M1827 5059H1955"/>
<path transform="matrix(.12,0,0,-.12,14,794)" stroke-width="13" stroke-linecap="round" stroke-linejoin="round" fill="none" stroke="#000000" d="M2057 5059H2186"/>
<path transform="matrix(.12,0,0,-.12,14,794)" stroke-width="13" stroke-linecap="round" stroke-linejoin="round" fill="none" stroke="#000000" d="M2288 5059H2416"/>
<path transform="matrix(.12,0,0,-.12,14,794)" stroke-width="13" stroke-linecap="round" stroke-linejoin="round" fill="none" stroke="#000000" d="M2518 5059H2647"/>
<path transform="matrix(.12,0,0,-.12,14,794)" stroke-width="13" stroke-linecap="round" stroke-linejoin="round" fill="none" stroke="#000000" d="M2749 5059H2877"/>
<path transform="matrix(.12,0,0,-.12,14,794)" stroke-width="13" stroke-linecap="round" stroke-linejoin="round" fill="none" stroke="#000000" d="M2979 5059H3198"/>
<path transform="matrix(.12,0,0,-.12,14,794)" stroke-width="13" stroke-linecap="round" stroke-linejoin="round" fill="none" stroke="#000000" d="M346 4552H3198"/>
<path transform="matrix(.12,0,0,-.12,14,794)" stroke-width="6" stroke-linecap="round" stroke-linejoin="round" fill="none" stroke="#000000" d="M572 5059V4916H674V5059"/>
<path transform="matrix(.12,0,0,-.12,14,794)" stroke-width="6" stroke-linecap="round" stroke-linejoin="round" fill="none" stroke="#000000" d="M803 5059V4916H905V5059"/>
<path transform="matrix(.12,0,0,-.12,14,794)" stroke-width="6" stroke-linecap="round" stroke-linejoin="round" fill="none" stroke="#000000" d="M1033 5059V4916H1135V5059"/>
<path transform="matrix(.12,0,0,-.12,14,794)" stroke-width="6" stroke-linecap="round" stroke-linejoin="round" fill="none" stroke="#000000" d="M1264 5059V4916H1366V5059"/>
<path transform="matrix(.12,0,0,-.12,14,794)" stroke-width="6" stroke-linecap="round" stroke-linejoin="round" fill="none" stroke="#000000" d="M1494 5059V4916H1596V5059"/>
<path transform="matrix(.12,0,0,-.12,14,794)" stroke-width="6" stroke-linecap="round" stroke-linejoin="round" fill="none" stroke="#000000" d="M1725 5059V4916H1827V5059"/>
<path transform="matrix(.12,0,0,-.12,14,794)" stroke-width="6" stroke-linecap="round" stroke-linejoin="round" fill="none" stroke="#000000" d="M1955 5059V4916H2057V5059"/>
<path transform="matrix(.12,0,0,-.12,14,794)" stroke-width="6" stroke-linecap="round" stroke-linejoin="round" fill="none" stroke="#000000" d="M2186 5059V4916H2288V5059"/>
<path transform="matrix(.12,0,0,-.12,14,794)" stroke-width="6" stroke-linecap="round" stroke-linejoin="round" fill="none" stroke="#000000" d="M2416 5059V4916H2518V5059"/>
<path transform="matrix(.12,0,0,-.12,14,794)" stroke-width="6" stroke-linecap="round" stroke-linejoin="round" fill="none" stroke="#000000" d="M2647 5059V4916H2749V5059"/>
<path transform="matrix(.12,0,0,-.12,14,794)" stroke-width="6" stroke-linecap="round" stroke-linejoin="round" fill="none" stroke="#000000" d="M2877 5059V4916H2979V5059"/>
<path transform="matrix(.12,0,0,-.12,14,794)" stroke-width="13" stroke-linecap="round" stroke-linejoin="round" fill="none" stroke="#000000" d="M346 1727H572"/>
<path transform="matrix(.12,0,0,-.12,14,794)" stroke-width="13" stroke-linecap="round" stroke-linejoin="round" fill="none" stroke="#000000" d="M674 1727H803"/>
<path transform="matrix(.12,0,0,-.12,14,794)" stroke-width="13" stroke-linecap="round" stroke-linejoin="round" fill="none" stroke="#000000" d="M905 1727H1033"/>
<path transform="matrix(.12,0,0,-.12,14,794)" stroke-width="13" stroke-linecap="round" stroke-linejoin="round" fill="none" stroke="#000000" d="M1135 1727H1264"/>
<path transform="matrix(.12,0,0,-.12,14,794)" stroke-width="13" stroke-linecap="round" stroke-linejoin="round" fill="none" stroke="#000000" d="M1366 1727H1494"/>
<path transform="matrix(.12,0,0,-.12,14,794)" stroke-width="13" stroke-linecap="round" stroke-linejoin="round" fill="none" stroke="#000000" d="M1596 1727H1725"/>
<path transform="matrix(.12,0,0,-.12,14,794)" stroke-width="13" stroke-linecap="round" stroke-linejoin="round" fill="none" stroke="#000000" d="M1827 1727H1955"/>
<path transform="matrix(.12,0,0,-.12,14,794)" stroke-width="13" stroke-linecap="round" stroke-linejoin="round" fill="none" stroke="#000000" d="M2057 1727H2186"/>
<path transform="matrix(.12,0,0,-.12,14,794)" stroke-width="13" stroke-linecap="round" stroke-linejoin="round" fill="none" stroke="#000000" d="M2288 1727H2416"/>
<path transform="matrix(.12,0,0,-.12,14,794)" stroke-width="13" stroke-linecap="round" stroke-linejoin="round" fill="none" stroke="#000000" d="M2518 1727H2647"/>
<path transform="matrix(.12,0,0,-.12,14,794)" stroke-width="13" stroke-linecap="round" stroke-linejoin="round" fill="none" stroke="#000000" d="M2749 1727H2877"/>
<path transform="matrix(.12,0,0,-.12,14,794)" stroke-width="13" stroke-linecap="round" stroke-linejoin="round" fill="none" stroke="#000000" d="M2979 1727H3198"/>
<path transform="matrix(.12,0,0,-.12,14,794)" stroke-width="6" stroke-linecap="round" stroke-linejoin="round" fill="none" stroke="#000000" d="M572 1727V1870H674V1727"/>
<path transform="matrix(.12,0,0,-.12,14,794)" stroke-width="6" stroke-linecap="round" stroke-linejoin="round" fill="none" stroke="#000000" d="M803 1727V1870H905V1727"/>
<path transform="matrix(.12,0,0,-.12,14,794)" stroke-width="6" stroke-linecap="round" stroke-linejoin="round" fill="none" stroke="#000000" d="M1033 1727V1870H1135V1727"/>
<path transform="matrix(.12,0,0,-.12,14,794)" stroke-width="6" stroke-linecap="round" stroke-linejoin="round" fill="none" stroke="#000000" d="M1264 1727V1870H1366V1727"/>
<path transform="matrix(.12,0,0,-.12,14,794)" stroke-width="6" stroke-linecap="round" stroke-linejoin="round" fill="none" stroke="#000000" d="M1494 1727V1870H1596V1727"/>
<path transform="matrix(.12,0,0,-.12,14,794)" stroke-width="6" stroke-linecap="round" stroke-linejoin="round" fill="none" stroke="#000000" d="M1725 1727V1870H1827V1727"/>
<path transform="matrix(.12,0,0,-.12,14,794)" stroke-width="6" stroke-linecap="round" stroke-linejoin="round" fill="none" stroke="#000000" d="M1955 1727V1870H2057V1727"/>
<path transform="matrix(.12,0,0,-.12,14,794)" stroke-width="6" stroke-linecap="round" stroke-linejoin="round" fill="none" stroke="#000000" d="M2186 1727V1870H2288V1727"/>
<path transform="matrix(.12,0,0,-.12,14,794)" stroke-width="6" stroke-linecap="round" stroke-linejoin="round" fill="none" stroke="#000000" d="M2416 1727V1870H2518V1727"/>
<path transform="matrix(.12,0,0,-.12,14,794)" stroke-width="6" stroke-linecap="round" stroke-linejoin="round" fill="none" stroke="#000000" d="M2647 1727V1870H2749V1727"/>
<path transform="matrix(.12,0,0,-.12,14,794)" stroke-width="6" stroke-linecap="round" stroke-linejoin="round" fill="none" stroke="#000000" d="M2877 1727V1870H2979V1727"/>
<path transform="matrix(.12,0,0,-.12,14,794)" stroke-width="13" stroke-linecap="round" stroke-linejoin="round" fill="none" stroke="#000000" d="M1987 802.5C1987 920.9651 1890.9651 1017 1772.5 1017 1654.0349 1017 1558 920.9651 1558 802.5 1558 684.0349 1654.0349 588 1772.5 588 1890.9651 588 1987 684.0349 1987 802.5"/>
<path transform="matrix(.12,0,0,-.12,14,794)" stroke-width="13" stroke-linecap="round" stroke-linejoin="round" fill="none" stroke="#000000" d="M2700 802.5C2700 920.9651 2603.965 1017 2485.5 1017 2367.035 1017 2271 920.9651 2271 802.5 2271 684.0349 2367.035 588 2485.5 588 2603.965 588 2700 684.0349 2700 802.5"/>
<path transform="matrix(.12,0,0,-.12,14,794)" stroke-width="13" stroke-linecap="round" stroke-linejoin="round" fill="none" stroke="#000000" d="M1274 802.5C1274 920.9651 1177.9651 1017 1059.5 1017 941.0349 1017 845 920.9651 845 802.5 845 684.0349 941.0349 588 1059.5 588 1177.9651 588 1274 684.0349 1274 802.5"/>
<path transform="matrix(.12,0,0,-.12,14,794)" stroke-width="13" stroke-linecap="round" stroke-linejoin="round" fill="none" stroke="#000000" d="M1103 818 1199 780 1175 719 1079 757 1042 661 981 685 1019 781 923 819 947 879 1043 842 1080 938 1141 914 1103 818"/>
<path transform="matrix(.12,0,0,-.12,14,794)" stroke-width="13" stroke-linecap="round" stroke-linejoin="round" fill="none" stroke="#000000" d="M1729 793 1640 845 1672 901 1762 849 1813 939 1869 906 1818 817 1907 765 1875 709 1785 760 1734 671 1677 704 1729 793"/>
<path transform="matrix(.12,0,0,-.12,14,794)" stroke-width="13" stroke-linecap="round" stroke-linejoin="round" fill="none" stroke="#000000" d="M2532 788 2577 695 2518 666 2474 759 2381 715 2353 774 2446 818 2401 911 2460 939 2504 846 2597 891 2625 832 2532 788"/>
</g>
</g>
</svg>
