<svg xmlns="http://www.w3.org/2000/svg" xmlns:xlink="http://www.w3.org/1999/xlink" version="1.1" width="595pt" height="842pt" viewBox="0 0 595 842">
<defs>
<clipPath id="clip_0">
<path transform="matrix(.12,0,0,-.12,14,794)" d="M273 0H4960V5611H273V0"/>
</clipPath>
<clipPath id="clip_1">
<path transform="matrix(.12,0,0,-.12,14,794)" d="M273 0H4960V5611H273V0"/>
</clipPath>
<clipPath id="clip_2">
<path transform="matrix(.12,0,0,-.12,14,794)" d="M273 0H4960V5611H273V0"/>
</clipPath>
</defs>
<g clip-path="url(#clip_0)">
<g id="layer_1" data-name="">
<path transform="matrix(.12,0,0,-.12,14,794)" stroke-width="13" stroke-linecap="round" stroke-linejoin="round" fill="none" stroke="#000000" d="M4258 3494.5C4258 4367.386 3550.386 5075 2677.5 5075 1804.6139 5075 1097 4367.386 1097 3494.5 1097 2621.614 1804.6139 1914 2677.5 1914 3550.386 1914 4258 2621.614 4258 3494.5"/>
<path transform="matrix(.12,0,0,-.12,14,794)" stroke-width="13" stroke-linecap="round" stroke-linejoin="round" fill="none" stroke="#000000" d="M1463 4416H3926V3305H1463V4416"/>
<path transform="matrix(.12,0,0,-.12,14,794)" stroke-width="13" stroke-linecap="round" stroke-linejoin="round" fill="none" stroke="#000000" d="M943.8546 3351.903C986.52566 2833.123 1259.2799 2360.7164 1687.2304 2064.386"/>
<path transform="matrix(.12,0,0,-.12,14,794)" stroke-width="13" stroke-linecap="round" stroke-linejoin="round" fill="none" stroke="#000000" d="M1934.0695 1921.868C2404.72 1699.3773 2950.28 1699.3773 3420.9307 1921.868"/>
<path transform="matrix(.12,0,0,-.12,14,794)" stroke-width="13" stroke-linecap="round" stroke-linejoin="round" fill="none" stroke="#000000" d="M3667.7696 2064.386C4095.72 2360.7164 4368.474 2833.123 4411.1457 3351.903"/>
<path transform="matrix(.12,0,0,-.12,14,794)" stroke-width="13" stroke-linecap="round" stroke-linejoin="round" fill="none" stroke="#000000" d="M4411.7316 3629.7825C4371.0495 4151.3 4097.833 4626.821 3667.7696 4924.6145"/>
<path transform="matrix(.12,0,0,-.12,14,794)" stroke-width="13" stroke-linecap="round" stroke-linejoin="round" fill="none" stroke="#000000" d="M3420.9307 5067.132C2950.28 5289.6228 2404.72 5289.6228 1934.0695 5067.132"/>
<path transform="matrix(.12,0,0,-.12,14,794)" stroke-width="13" stroke-linecap="round" stroke-linejoin="round" fill="none" stroke="#000000" d="M1687.2304 4924.6145C1259.2799 4628.2839 986.52566 4155.877 943.8546 3637.097"/>
<path transform="matrix(.12,0,0,-.12,14,794)" stroke-width="6" stroke-linecap="round" stroke-linejoin="round" fill="none" stroke="#000000" d="M4410 3637H4514V3494"/>
<path transform="matrix(.12,0,0,-.12,14,794)" stroke-width="6" stroke-linecap="round" stroke-linejoin="round" fill="none" stroke="#000000" d="M4410 3352H4514V3494"/>
<path transform="matrix(.12,0,0,-.12,14,794)" stroke-width="6" stroke-linecap="round" stroke-linejoin="round" fill="none" stroke="#000000" d="M3420 5067 3472 5156 3595 5085"/>
<path transform="matrix(.12,0,0,-.12,14,794)" stroke-width="6" stroke-linecap="round" stroke-linejoin="round" fill="none" stroke="#000000" d="M3667 4924 3719 5013 3595 5085"/>
<path transform="matrix(.12,0,0,-.12,14,794)" stroke-width="6" stroke-linecap="round" stroke-linejoin="round" fill="none" stroke="#000000" d="M1687 4924 1636 5013 1759 5085"/>
<path transform="matrix(.12,0,0,-.12,14,794)" stroke-width="6" stroke-linecap="round" stroke-linejoin="round" fill="none" stroke="#000000" d="M1934 5067 1882 5156 1759 5085"/>
<path transform="matrix(.12,0,0,-.12,14,794)" stroke-width="6" stroke-linecap="round" stroke-linejoin="round" fill="none" stroke="#000000" d="M944 3352H841V3494"/>
<path transform="matrix(.12,0,0,-.12,14,794)" stroke-width="6" stroke-linecap="round" stroke-linejoin="round" fill="none" stroke="#000000" d="M944 3637H841V3494"/>
<path transform="matrix(.12,0,0,-.12,14,794)" stroke-width="6" stroke-linecap="round" stroke-linejoin="round" fill="none" stroke="#000000" d="M1934 1922 1882 1833 1759 1904"/>
<path transform="matrix(.12,0,0,-.12,14,794)" stroke-width="6" stroke-linecap="round" stroke-linejoin="round" fill="none" stroke="#000000" d="M1687 2065 1636 1975 1759 1904"/>
<path transform="matrix(.12,0,0,-.12,14,794)" stroke-width="6" stroke-linecap="round" stroke-linejoin="round" fill="none" stroke="#000000" d="M3667 2065 3719 1975 3595 1904"/>
<path transform="matrix(.12,0,0,-.12,14,794)" stroke-width="6" stroke-linecap="round" stroke-linejoin="round" fill="none" stroke="#000000" d="M3420 1922 3472 1833 3595 1904"/>
<path transform="matrix(.12,0,0,-.12,14,794)" stroke-width="13" stroke-linecap="round" stroke-linejoin="round" fill="none" stroke="#000000" d="M2120 1847V775H2677"/>
<path transform="matrix(.12,0,0,-.12,14,794)" stroke-width="13" stroke-linecap="round" stroke-linejoin="round" fill="none" stroke="#000000" d="M3235 1847V775H2677"/>
<path transform="matrix(.12,0,0,-.12,14,794)" stroke-width="13" stroke-linecap="round" stroke-linejoin="round" fill="none" stroke="#000000" d="M2212 775V639H2677"/>
<path transform="matrix(.12,0,0,-.12,14,794)" stroke-width="13" stroke-linecap="round" stroke-linejoin="round" fill="none" stroke="#000000" d="M3143 775V639H2677"/>
<path transform="matrix(.12,0,0,-.12,14,794)" stroke-width="13" stroke-linecap="round" stroke-linejoin="round" fill="none" stroke="#000000" d="M2388 639V219H2677"/>
<path transform="matrix(.12,0,0,-.12,14,794)" stroke-width="13" stroke-linecap="round" stroke-linejoin="round" fill="none" stroke="#000000" d="M2967 639V219H2677"/>
</g>
</g>
<g clip-path="url(#clip_1)">
<g id="layer_1" data-name="">
<text xml:space="preserve" transform="matrix(.12 0 -0 .12 14 794)" font-size="267.392" font-family="ArialMT"><tspan y="-3038" x="1582 1804.7376 1953.4075 2101.0079 2249.6778 2433.6436 2582.3135 2704.779">&#x041c;&#x0430;&#x043d;&#x043e;&#x043c;&#x0435;&#x0442;&#x0440;</tspan></text>
</g>
<g clip-path="url(#clip_2)">
<text xml:space="preserve" transform="matrix(.12 0 -0 .12 14 794)" font-size="1343.928" font-family="ArialMT"><tspan y="-1154" x="1582"> </tspan></text>
<text xml:space="preserve" transform="matrix(.12 0 -0 .12 14 794)" font-size="267.392" font-family="ArialMT"><tspan y="-3376" x="3343 3460.1177 3652.3726">&#x043a;&#x041f;&#x0430;</tspan></text>
</g>
</g>
</svg>
